<?xml version="1.0" encoding="UTF-8"?>
<svg version="1.1" xmlns="http://www.w3.org/2000/svg" width="1356" height="1074">
<path d="M0 0 C3.61707406 1.61139792 6.5097127 3.81894893 9.625 6.25 C10.46381714 6.90210449 10.46381714 6.90210449 11.31958008 7.56738281 C12.55258411 8.52651591 13.7843797 9.48720398 15.01513672 10.44921875 C17.08143357 12.06362436 19.15158237 13.67297804 21.22265625 15.28125 C24.25576641 17.63694319 27.2868051 19.99526458 30.31640625 22.35546875 C33.40326016 24.75949848 36.49450067 27.15769289 39.58984375 29.55078125 C47.55069862 35.71140415 55.444709 41.9383652 63.23608398 48.31225586 C67.51114703 51.80586151 71.83094951 55.23374226 76.1875 58.625 C81.88884849 63.07029657 87.42029801 67.68920859 92.91796875 72.3828125 C95.74683013 74.79496524 98.61575122 77.15419998 101.5 79.5 C106.10328104 83.24685666 110.63907651 87.06623705 115.15966797 90.91186523 C118.61141329 93.84262139 122.10213559 96.71710951 125.625 99.5625 C130.3823291 103.43345628 134.9224507 107.50285952 139.4375 111.65234375 C142.90575601 114.8298161 146.44831574 117.91659054 150 121 C151.50047985 122.3119514 153.00048814 123.62444233 154.5 124.9375 C155.1703125 125.52402344 155.840625 126.11054688 156.53125 126.71484375 C157.0159375 127.13894531 157.500625 127.56304687 158 128 C157.67 128.66 157.34 129.32 157 130 C145.12 122.08 133.24 114.16 121 106 C125.51849079 109.61479263 130.06215005 113.1917439 134.625 116.75 C135.36878906 117.33265625 136.11257813 117.9153125 136.87890625 118.515625 C138.43137642 119.7257556 139.99814851 120.91771381 141.57714844 122.09301758 C144 124 144 124 146.21191406 126.2253418 C154.74574757 134.06014936 164.33884434 132.83387625 175.22900391 132.43075562 C180.74485313 132.23134231 186.26251171 132.17323343 191.78125 132.1015625 C192.85697266 132.08459824 193.93269531 132.06763397 195.04101562 132.05015564 C207.19980706 131.89089812 219.00952134 132.9580926 231 135 C232.54953369 135.25740967 232.54953369 135.25740967 234.13037109 135.52001953 C265.83452718 140.9438004 300.42532028 150.54113536 327.7109375 168.19921875 C332.68021308 169.9376172 338.27760889 166.05447217 342.87304688 164.03100586 C379.32142485 147.99168711 417.95003629 137.31701558 457.6875 133.9362793 C458.821875 133.83871338 459.95625 133.74114746 461.125 133.640625 C462.11757813 133.56360352 463.11015625 133.48658203 464.1328125 133.40722656 C470.73845213 132.46902775 474.40641273 130.12104866 478.875 125.3125 C479.93686159 124.20906683 481.0006581 123.10749232 482.06640625 122.0078125 C482.57445801 121.4809082 483.08250977 120.95400391 483.60595703 120.41113281 C485.26270474 118.73407471 487.00416684 117.19906076 488.8125 115.6875 C493.6108658 111.61341583 497.96674177 107.08351998 502.37036133 102.5925293 C505.47477774 99.44546867 508.61855507 96.41686712 511.96875 93.53125 C516.1923881 89.88933509 520.09658163 85.97965701 524 82 C528.52978713 77.38174047 533.12959484 72.9680272 538.03125 68.74609375 C541.33738101 65.81387042 544.40917665 62.65589331 547.5 59.5 C551.21590024 55.70587028 554.94312464 51.99863434 558.96875 48.53125 C563.1923881 44.88933509 567.09658163 40.97965701 571 37 C575.59119163 32.31913666 580.25376514 27.83656612 585.22363281 23.55810547 C588.09873203 21.03626885 590.70058386 18.2705026 593.3359375 15.50390625 C595 14 595 14 597 14 C597.0259364 14.80322819 597.05187281 15.60645638 597.07859516 16.43402481 C597.71462488 36.01848807 598.40916661 55.60008444 599.16812611 75.1801796 C599.5337668 84.64930456 599.87988999 94.11837871 600.17944336 103.58984375 C600.44072322 111.84956291 600.73926343 120.10696802 601.08179587 128.36373115 C601.26174049 132.73222108 601.42350722 137.09961968 601.54059792 141.47028351 C601.65164694 145.59334118 601.81284871 149.71151898 602.0110054 153.83127975 C602.07476703 155.3349256 602.12092358 156.83944994 602.14711189 158.34421921 C602.32256319 167.70397861 604.12639693 173.58634143 610.85928136 180.11353517 C611.33476326 180.55678691 611.81024517 181.00003865 612.30013561 181.45672226 C627.50864089 195.78316514 636.16535145 219.19077628 641 239 C641 240.32 641 241.64 641 243 C641.81597656 243.2371875 642.63195313 243.474375 643.47265625 243.71875 C647.72172297 245.26215408 651.50422314 247.28874639 655.4375 249.5 C656.22882324 249.94359863 657.02014648 250.38719727 657.83544922 250.84423828 C689.44221028 268.79383518 720.43696687 293.72042951 742.9453125 322.38671875 C745.14098803 325.17931747 747.43944077 327.8643869 749.75 330.5625 C764.79597587 348.61767104 777.38195029 368.615407 789 389 C789.45455566 389.78874512 789.90911133 390.57749023 790.37744141 391.39013672 C814.18005563 432.87935897 830.85053619 478.65036858 842.4375 524.9375 C842.6472345 525.77376923 842.85696899 526.61003845 843.07305908 527.47164917 C847.03523067 543.37071041 850.16173819 559.08388645 851.625 575.4375 C851.74617188 576.70142578 851.86734375 577.96535156 851.9921875 579.26757812 C853.54952383 595.96662479 854.20705024 612.54382854 854.1875 629.3125 C854.18659363 630.75873749 854.18659363 630.75873749 854.18566895 632.23419189 C854.03377709 721.93744471 829.49526733 814.22743191 771 884 C770.1270728 885.0633661 769.2546876 886.12717734 768.3828125 887.19140625 C753.97410159 904.63740195 738.12017632 921.36630964 720 935 C741.25450709 919.47020255 761.95339788 900.9531593 778 880 C778.7940625 879.01128906 779.588125 878.02257812 780.40625 877.00390625 C786.50895603 869.3571706 791.76382462 861.32448771 796.81494141 852.95263672 C797.90517543 851.1562437 799.01615502 849.37522803 800.13671875 847.59765625 C834.55879452 792.43130936 853.88587278 728.63030533 859 664 C859.05784668 663.30165039 859.11569336 662.60330078 859.17529297 661.88378906 C866.58570457 568.95678776 843.13625538 473.16664351 795 390 C794.44489746 389.03964844 793.88979492 388.07929688 793.31787109 387.08984375 C786.58314104 375.46299639 779.66814208 364.03577058 772 353 C771.5270752 352.31599121 771.05415039 351.63198242 770.56689453 350.92724609 C761.58264245 337.96103783 752.21826306 325.43030303 741.93359375 313.4609375 C740.26831898 311.52228608 738.64995482 309.5608604 737.05664062 307.56201172 C731.75991123 300.93636652 726.11487763 294.80223685 720.09863281 288.83789062 C718.62587477 287.37586839 717.16414955 285.90342512 715.703125 284.4296875 C709.46917827 278.18608676 702.93794217 272.45788327 696 267 C695.27458008 266.42056641 694.54916016 265.84113281 693.80175781 265.24414062 C691.81754293 263.66706642 689.82001589 262.10978023 687.8125 260.5625 C687.10488525 260.01609863 686.39727051 259.46969727 685.66821289 258.90673828 C679.9629149 254.57396801 674.03241931 250.73368488 667.82543945 247.15844727 C666.16987839 246.18133626 664.57698397 245.09943162 663 244 C663 243.01 663 242.02 663 241 C679.64532369 243.26277212 696.77649218 260.33764671 709 271 C709.680625 271.58007812 710.36125 272.16015625 711.0625 272.7578125 C720.82984401 281.13583603 730.45144175 289.87525548 738.90234375 299.58984375 C741.17172369 302.19730636 743.52081615 304.71897605 745.875 307.25 C751.06622957 312.96115241 755.81724338 318.9509976 760.51416016 325.06835938 C762.06791462 327.08829123 763.63306483 329.0990457 765.19921875 331.109375 C772.49139326 340.50808143 779.41054935 350.09652842 786 360 C786.44021484 360.6590332 786.88042969 361.31806641 787.33398438 361.99707031 C834.49252536 432.87257097 863.05053517 510.98336181 871 596 C871.09571289 596.95672607 871.19142578 597.91345215 871.29003906 598.89916992 C872.40172311 611.71043204 872.24389881 624.58850179 872.25 637.4375 C872.25101212 639.34941635 872.25101212 639.34941635 872.25204468 641.29995728 C872.23598666 660.39473883 871.75724641 679.07921068 869 698 C868.75056641 699.80500977 868.75056641 699.80500977 868.49609375 701.64648438 C862.22733077 746.15470153 849.01993861 790.09126932 828.07617188 829.9375 C826.85850147 832.27118412 825.67154251 834.61940798 824.484375 836.96875 C818.30916014 849.0944028 811.5205257 860.66115828 804 872 C803.36916504 872.95156982 803.36916504 872.95156982 802.72558594 873.92236328 C797.83843709 881.24117635 792.62914352 888.23488517 787 895 C785.84951172 896.42892578 785.84951172 896.42892578 784.67578125 897.88671875 C777.90702034 906.15197442 770.46738648 913.74759752 762.9375 921.3125 C762.430979 921.82419739 761.92445801 922.33589478 761.40258789 922.86309814 C754.60534604 929.71501465 747.56738981 935.99075497 740 942 C738.70613643 943.07261615 737.41538371 944.14900488 736.12890625 945.23046875 C660.94707971 1007.82830193 563.41513791 1038.49232064 452 1048 C451.17032715 1048.05784668 450.3406543 1048.11569336 449.48583984 1048.17529297 C384.70759331 1052.59527051 310.66021435 1050.2078046 248 1032 C247.03803711 1031.72462402 246.07607422 1031.44924805 245.08496094 1031.16552734 C190.87821242 1015.48301851 136.73786527 992.48621899 91 959 C90.32936523 958.51047852 89.65873047 958.02095703 88.96777344 957.51660156 C77.09119648 948.80932036 65.6795345 939.7054498 54.89453125 929.671875 C52.3422461 927.31591948 49.74423754 925.03057999 47.125 922.75 C36.42791685 913.11747408 26.96376135 902.24487158 18.32226562 890.75488281 C16.99300548 888.99071703 15.64552714 887.24155427 14.296875 885.4921875 C-10.31032487 853.19633857 -35.78449573 804.91639008 -34.35693359 762.94702148 C-33.71736251 759.45825308 -31.76441541 757.0310914 -29.5 754.4375 C-29.01660156 753.85524658 -28.53320312 753.27299316 -28.03515625 752.6730957 C-18.47880212 741.41727149 -7.77531894 730.90928165 4 722 C4.80026611 721.38511719 4.80026611 721.38511719 5.61669922 720.7578125 C72.41765259 669.57340391 156.20378496 648.21659028 238.5625 639.75 C239.37148743 639.66682526 240.18047485 639.58365051 241.01397705 639.49795532 C348.94472745 628.53570033 457.68638296 639.15893931 587 712 C563.04722206 686.54724379 525.29492497 671.13895767 493 660 C492.05640625 659.66693848 491.1128125 659.33387695 490.140625 658.99072266 C447.02342268 643.87466795 401.36424292 636.96384134 356 633 C355.31321167 632.93941406 354.62642334 632.87882813 353.91882324 632.81640625 C313.82471735 629.33647662 273.0310288 629.76120906 232.92919922 632.8125 C229.27250321 633.04656756 225.66236061 633.07315577 222 633 C216.77801404 605.31840452 218.70309325 576.70133502 223 549 C221.35 548.67 219.7 548.34 218 548 C215.63822154 564.46335462 214.7061778 580.63855351 214.75 597.25 C214.75104736 598.11269501 214.75209473 598.97539001 214.75317383 599.86422729 C214.78162673 610.94518304 215.17299543 621.94891097 216 633 C204.93358539 622.27017937 201.19779576 604.36874986 200.796875 589.4453125 C200.60754098 573.89410468 202.17146768 560.06444238 206 545 C204.845 544.835 203.69 544.67 202.5 544.5 C184.44059216 540.38268218 168.1418414 527.1843597 158 512 C149.86136374 498.65459344 145.52051133 484.66739097 145 469 C143.97712891 468.64421875 143.97712891 468.64421875 142.93359375 468.28125 C139.37175787 466.72561462 136.2624218 464.67837788 133.0625 462.5 C132.40644775 462.05712646 131.75039551 461.61425293 131.07446289 461.15795898 C110.80897993 447.41185053 91.04796613 432.65803251 74 415 C71.52331329 412.50337218 69.03173719 410.03040245 66.4921875 407.59765625 C59.25375581 400.58610078 52.99096578 393.09688103 47 385 C46.40058594 384.19175781 46.40058594 384.19175781 45.7890625 383.3671875 C19.29403526 347.26993562 11.46118676 305.36524729 17.58764648 261.31005859 C20.18905858 244.39577917 24.72719287 226.90228252 33.4375 212.0625 C35.79314186 207.38582173 36.24970132 204.17362077 35.8515625 198.96875 C35.79879654 198.2539296 35.74603058 197.53910919 35.69166565 196.80262756 C34.70895755 184.32535346 33.27958612 171.87983731 31.9375 159.4375 C31.6521775 156.76896715 31.36806661 154.10030576 31.08398438 151.43164062 C30.39350819 144.95397398 29.69855643 138.47679998 29 132 C29.06058594 132.82089111 29.12117187 133.64178223 29.18359375 134.48754883 C29.41040361 137.58677477 29.63359825 140.68623588 29.85449219 143.78588867 C29.99663687 145.76565883 30.14280109 147.74513909 30.2890625 149.72460938 C30.81653558 157.16574746 31.1400727 164.54015605 31 172 C28.21876179 169.21876179 27.93829014 166.10431799 27.15234375 162.375 C26.97992661 161.58239777 26.80750946 160.78979553 26.62986755 159.97317505 C26.05633818 157.31736774 25.49593587 154.65901977 24.9375 152 C24.74158264 151.07652771 24.54566528 150.15305542 24.34381104 149.20159912 C16.42977883 111.81412387 10.15577448 74.10711846 4.35998535 36.34020996 C4.01424885 34.09262962 3.66545809 31.84554832 3.31542969 29.59863281 C2.72341221 25.79608578 2.14121329 21.99209704 1.5625 18.1875 C1.39838623 17.12668213 1.23427246 16.06586426 1.06518555 14.97290039 C0.31267091 9.91921928 -0.17815862 5.10958935 0 0 Z M18 31 C17.90961901 36.15171623 18.15318867 40.91913204 19 46 C19.33 46 19.66 46 20 46 C20.02708567 44.39592672 20.04643483 42.7917215 20.0625 41.1875 C20.07410156 40.29417969 20.08570313 39.40085937 20.09765625 38.48046875 C20.11009967 35.86586209 20.11009967 35.86586209 19 33 C19.66 32.67 20.32 32.34 21 32 C20.01 31.67 19.02 31.34 18 31 Z M20 46 C20 48.97 20 51.94 20 55 C20.33 55 20.66 55 21 55 C21 52.03 21 49.06 21 46 C20.67 46 20.34 46 20 46 Z M21 55 C21 57.64 21 60.28 21 63 C21.33 63 21.66 63 22 63 C22 60.36 22 57.72 22 55 C21.67 55 21.34 55 21 55 Z M22 65 C22 67.31 22 69.62 22 72 C22.33 72 22.66 72 23 72 C23 69.69 23 67.38 23 65 C22.67 65 22.34 65 22 65 Z M23 74 C23 75.98 23 77.96 23 80 C23.33 80 23.66 80 24 80 C24 78.02 24 76.04 24 74 C23.67 74 23.34 74 23 74 Z M24 84 C24 85.98 24 87.96 24 90 C24.33 90 24.66 90 25 90 C25 88.02 25 86.04 25 84 C24.67 84 24.34 84 24 84 Z M25 93 C25 94.98 25 96.96 25 99 C25.33 99 25.66 99 26 99 C26 97.02 26 95.04 26 93 C25.67 93 25.34 93 25 93 Z M112 100 C112.33 100.66 112.66 101.32 113 102 C113.66 101.67 114.32 101.34 115 101 C114.01 100.67 113.02 100.34 112 100 Z M26 103 C26 105.31 26 107.62 26 110 C26.33 110 26.66 110 27 110 C27 107.69 27 105.38 27 103 C26.67 103 26.34 103 26 103 Z M116 103 C116.33 103.66 116.66 104.32 117 105 C117.66 104.67 118.32 104.34 119 104 C118.01 103.67 117.02 103.34 116 103 Z M27 112 C27 114.97 27 117.94 27 121 C27.33 121 27.66 121 28 121 C28 118.03 28 115.06 28 112 C27.67 112 27.34 112 27 112 Z M172 139 C172 139.33 172 139.66 172 140 C185.53 140 199.06 140 213 140 C213 139.67 213 139.34 213 139 C199.47 139 185.94 139 172 139 Z M161 140 C161 140.33 161 140.66 161 141 C163.64 141 166.28 141 169 141 C169 140.67 169 140.34 169 140 C166.36 140 163.72 140 161 140 Z M216 140 C216 140.33 216 140.66 216 141 C218.97 141 221.94 141 225 141 C225 140.67 225 140.34 225 140 C222.03 140 219.06 140 216 140 Z M462 140 C462 140.33 462 140.66 462 141 C470.91 141 479.82 141 489 141 C489 140.67 489 140.34 489 140 C480.09 140 471.18 140 462 140 Z M153 141 C153 141.33 153 141.66 153 142 C154.98 142 156.96 142 159 142 C159 141.67 159 141.34 159 141 C157.02 141 155.04 141 153 141 Z M226 141 C226 141.33 226 141.66 226 142 C228.31 142 230.62 142 233 142 C233 141.67 233 141.34 233 141 C230.69 141 228.38 141 226 141 Z M447 141 C447 141.33 447 141.66 447 142 C449.64 142 452.28 142 455 142 C455 141.67 455 141.34 455 141 C452.36 141 449.72 141 447 141 Z M496 141 C496 141.33 496 141.66 496 142 C497.98 142 499.96 142 502 142 C502 141.67 502 141.34 502 141 C500.02 141 498.04 141 496 141 Z M147 142 C147 142.33 147 142.66 147 143 C148.65 143 150.3 143 152 143 C152 142.67 152 142.34 152 142 C150.35 142 148.7 142 147 142 Z M235 142 C235 142.33 235 142.66 235 143 C236.65 143 238.3 143 240 143 C240 142.67 240 142.34 240 142 C238.35 142 236.7 142 235 142 Z M438 142 C438 142.33 438 142.66 438 143 C439.65 143 441.3 143 443 143 C443 142.67 443 142.34 443 142 C441.35 142 439.7 142 438 142 Z M506 142 C506 142.33 506 142.66 506 143 C507.65 143 509.3 143 511 143 C511 142.67 511 142.34 511 142 C509.35 142 507.7 142 506 142 Z M139 145 C141.64 144.67 144.28 144.34 147 144 C147 143.67 147 143.34 147 143 C143.28400809 142.79913557 142.22791555 142.8480563 139 145 Z M241 143 C241 143.33 241 143.66 241 144 C242.65 144 244.3 144 246 144 C246 143.67 246 143.34 246 143 C244.35 143 242.7 143 241 143 Z M430 143 C430 143.33 430 143.66 430 144 C431.65 144 433.3 144 435 144 C435 143.67 435 143.34 435 143 C433.35 143 431.7 143 430 143 Z M513 143 C513 143.33 513 143.66 513 144 C514.65 144 516.3 144 518 144 C518 143.67 518 143.34 518 143 C516.35 143 514.7 143 513 143 Z M247 144 C247 144.33 247 144.66 247 145 C248.65 145 250.3 145 252 145 C252 144.67 252 144.34 252 144 C250.35 144 248.7 144 247 144 Z M424 144 C428 145 428 145 428 145 Z M132 147 C135.465 146.505 135.465 146.505 139 146 C135.51418144 144.7979936 135.32007656 144.78661563 132 147 Z M252 145 C256 146 256 146 256 146 Z M418 145 C422 146 422 146 422 146 Z M257 146 C261 147 261 147 261 147 Z M118.67578125 150.51953125 C117.81968262 150.87724609 116.96358398 151.23496094 116.08154297 151.60351562 C115.16775879 152.00248047 114.25397461 152.40144531 113.3125 152.8125 C112.37293457 153.22048828 111.43336914 153.62847656 110.46533203 154.04882812 C78.3692864 168.37187243 52.96922508 194.20681127 40.15771484 226.95703125 C26.64204021 262.9600548 24.12709344 307.31883885 40.08520508 342.94140625 C45.78980615 355.20026154 52.49076936 366.46340232 61 377 C61.72703125 377.93070313 62.4540625 378.86140625 63.203125 379.8203125 C69.49027132 387.58798037 76.46001315 394.67120163 83.5 401.75 C83.98446594 402.23973297 84.46893188 402.72946594 84.96807861 403.23403931 C91.62954634 409.95137814 98.56315915 416.14775405 106 422 C106.69899414 422.5583252 107.39798828 423.11665039 108.11816406 423.69189453 C116.60609936 430.43558695 125.36172028 436.72745514 134.375 442.75 C135.28491699 443.3586792 136.19483398 443.9673584 137.13232422 444.59448242 C141.83485013 447.75662451 141.83485013 447.75662451 147 450 C146.98045641 448.13480265 146.98045641 448.13480265 146 446 C143.9005182 444.38454858 141.87114909 443.00588321 139.625 441.625 C125.46981464 432.54236248 112.0460046 422.5070471 99.484375 411.32128906 C98.12242344 410.10897297 96.7492392 408.9093068 95.375 407.7109375 C84.68771535 398.2910552 74.69613214 388.30040288 66 377 C65.58572754 376.4834082 65.17145508 375.96681641 64.74462891 375.43457031 C38.77047436 343.02698023 31.13279339 305.11482912 35.53515625 264.296875 C40.3188802 227.36970141 56.76201419 193.8528548 86.61523438 170.75 C98.5738205 161.86092321 112.17660615 155.44770293 126 150 C122.5100503 148.83668343 121.94575508 149.15257781 118.67578125 150.51953125 Z M394 150 C398 151 398 151 398 151 Z M390 151 C394 152 394 152 394 152 Z M547 151 C549.27983259 153.27983259 551.64095728 154.26688064 554.55932617 155.56152344 C563.45224111 159.51221704 571.30419834 163.99629849 579 170 C579.86020752 170.66491455 579.86020752 170.66491455 580.73779297 171.34326172 C607.32598466 192.18579234 621.89346415 223.86121071 626 257 C626.11085938 257.85335937 626.22171875 258.70671875 626.3359375 259.5859375 C631.19719938 305.43946173 617.14978768 347.66226758 588.23828125 383.48046875 C585.56066512 386.71498704 582.79385416 389.86584329 580 393 C579.54625 393.51546387 579.0925 394.03092773 578.625 394.56201172 C560.24015792 415.40817677 537.90680717 431.0788371 514 445 C514.495 446.485 514.495 446.485 515 448 C537.6369416 435.80856204 557.41664446 420.73397779 576 403 C576.72445312 402.32839844 577.44890625 401.65679687 578.1953125 400.96484375 C584.52922355 394.92583139 589.74705013 387.97182769 595 381 C595.43634766 380.42443359 595.87269531 379.84886719 596.32226562 379.25585938 C623.74383453 342.84634073 636.53146641 301.29136716 630.75390625 255.859375 C625.62219303 220.49313762 609.64836252 188.91530005 580.75 167.25 C573.3287905 161.8536312 565.35076499 157.75516199 557 154 C556.36707031 153.70867187 555.73414063 153.41734375 555.08203125 153.1171875 C552.20594308 151.82686702 550.18950697 151 547 151 Z M372 156 C376 157 376 157 376 157 Z M301 159 C301.66 159.66 302.32 160.32 303 161 C303.99 160.67 304.98 160.34 306 160 C304.35 159.67 302.7 159.34 301 159 Z M306 161 C306.66 161.66 307.32 162.32 308 163 C308.99 162.67 309.98 162.34 311 162 C309.35 161.67 307.7 161.34 306 161 Z M349.32421875 163.6875 C347.95813477 164.24050781 347.95813477 164.24050781 346.56445312 164.8046875 C344.65647348 165.59741224 342.75019611 166.39424741 340.84570312 167.1953125 C334.35151769 169.81312368 330.71962879 170.58046474 324.11328125 167.7734375 C322.23775838 166.83698396 320.36276243 165.89947441 318.48828125 164.9609375 C315.93009339 163.66954567 315.93009339 163.66954567 313 165 C315.53241602 166.37448233 318.0735432 167.72421399 320.625 169.0625 C321.33785156 169.45244141 322.05070312 169.84238281 322.78515625 170.24414062 C323.48769531 170.60830078 324.19023438 170.97246094 324.9140625 171.34765625 C325.5529541 171.68804932 326.1918457 172.02844238 326.85009766 172.37915039 C331.55908573 173.73901374 336.05015745 171.74964012 340.3984375 169.93359375 C341.37167969 169.53076172 342.34492187 169.12792969 343.34765625 168.71289062 C344.34667969 168.29201172 345.34570312 167.87113281 346.375 167.4375 C347.39722656 167.01275391 348.41945313 166.58800781 349.47265625 166.15039062 C351.98417905 165.10587881 354.49312619 164.05560951 357 163 C353.4103147 161.80343823 352.71377408 162.26435629 349.32421875 163.6875 Z M298 506 C297.67 506.99 297.34 507.98 297 509 C299.18537367 509.50921328 301.37342431 510.00694437 303.5625 510.5 C304.78066406 510.7784375 305.99882813 511.056875 307.25390625 511.34375 C310.92222707 511.98637554 314.28502603 512.11474823 318 512 C318.33 511.01 318.66 510.02 319 509 C316.25071558 508.49576443 313.50068857 507.99646574 310.75 507.5 C309.97269531 507.35691406 309.19539063 507.21382812 308.39453125 507.06640625 C307.64042969 506.93105469 306.88632812 506.79570313 306.109375 506.65625 C305.41811523 506.53056641 304.72685547 506.40488281 304.01464844 506.27539062 C301.67837306 505.90971022 301.67837306 505.90971022 298 506 Z M350.3125 507.375 C349.62349609 507.50132812 348.93449219 507.62765625 348.22460938 507.7578125 C346.46816846 508.10322861 344.73122477 508.54474427 343 509 C342.67 509.66 342.34 510.32 342 511 C347.77611381 513.8880569 357.05768044 510.68178855 363 509 C362.67 508.01 362.34 507.02 362 506 C357.95062878 506 354.26005785 506.59375163 350.3125 507.375 Z M-3.13671875 765.00390625 C-5.20487755 767.21948098 -6.00607564 768.1498855 -5.984375 771.1862793 C-5.3660564 778.31046889 -3.96952404 784.94505914 -2 791.8125 C-1.69022217 792.89708496 -1.38044434 793.98166992 -1.0612793 795.09912109 C9.33398868 830.38080972 28.0865207 862.74948804 52.9609375 889.77734375 C54.81250295 891.79562103 56.59833 893.85349135 58.375 895.9375 C74.1000382 913.96109367 93.29854188 929.20657153 113.00048828 942.63574219 C114.86100116 943.90516172 116.71045299 945.18923329 118.55859375 946.4765625 C155.37178267 971.84683916 196.72597536 990.75464458 239 1005 C240.19786133 1005.40589355 241.39572266 1005.81178711 242.62988281 1006.22998047 C278.69544734 1018.19520477 317.0032136 1022.09075531 354.66351318 1025.77148438 C356.77171762 1025.97767328 358.87926149 1026.18964795 360.98681641 1026.40234375 C402.22245922 1030.38981865 444.84403738 1029.54555485 486 1025 C486.67045349 1024.92738953 487.34090698 1024.85477905 488.03167725 1024.77996826 C562.84845068 1016.6307934 638.76442154 993.21118504 701 950 C700.34 949.67 699.68 949.34 699 949 C696.77474804 950.01497686 696.77474804 950.01497686 694.29296875 951.578125 C693.32520508 952.15643066 692.35744141 952.73473633 691.36035156 953.33056641 C690.31331055 953.96397949 689.26626953 954.59739258 688.1875 955.25 C621.02850302 995.03646671 544.63550974 1015.15795957 467 1020 C465.69595215 1020.08612549 464.3919043 1020.17225098 463.04833984 1020.26098633 C449.3272787 1021.11161128 435.61898869 1021.200438 421.875 1021.1875 C420.68447021 1021.18689575 419.49394043 1021.1862915 418.26733398 1021.18566895 C399.09509461 1021.15933874 380.10260705 1020.71688305 361 1019 C360.27820557 1018.93683594 359.55641113 1018.87367188 358.81274414 1018.80859375 C335.00331812 1016.72063119 311.43481878 1013.56879111 287.91107178 1009.34124756 C286.18233846 1009.03255898 284.45185446 1008.73371436 282.72119141 1008.43603516 C206.04451362 995.03909012 123.02175672 949.9681678 73 890 C72.54786133 889.46165527 72.09572266 888.92331055 71.62988281 888.36865234 C45.93676708 857.67646074 15.94500035 816.22110858 9 776 C9.54532514 771.2099213 11.6144668 768.69436825 14.875 765.3125 C15.37040283 764.78849609 15.86580566 764.26449219 16.3762207 763.72460938 C79.43865283 697.81612925 180.7091096 675.74059623 267.76184082 665.27142334 C269.8483916 665.01838567 271.93349042 664.75568094 274.01855469 664.49072266 C295.69324427 661.83707188 317.42501579 661.68761142 339.23136139 661.63208389 C341.5117541 661.62515421 343.79208102 661.61350646 346.07244873 661.60092163 C374.85836749 661.46408082 403.47466202 663.21365389 431.9375 667.6875 C432.74810883 667.81183411 433.55871765 667.93616821 434.39389038 668.06427002 C459.84774756 671.99089582 484.80772691 677.62836006 509.3828125 685.3359375 C514.53122149 686.92700649 519.69482159 688.07067909 525 689 C522.62965715 686.62965715 520.77797562 686.03493989 517.62890625 684.8984375 C516.51193359 684.4947998 515.39496094 684.09116211 514.24414062 683.67529297 C512.42172852 683.03164795 512.42172852 683.03164795 510.5625 682.375 C509.93609619 682.15346252 509.30969238 681.93192505 508.66430664 681.70367432 C474.99760513 669.83378529 440.45526269 661.32890964 405 657 C404.09991211 656.88962402 403.19982422 656.77924805 402.27246094 656.66552734 C386.65845697 654.79831595 371.03980082 653.80149139 355.3125 653.8125 C354.63168365 653.81277191 353.95086731 653.81304382 353.24942017 653.81332397 C275.40737139 653.95190595 196.92764118 662.51317242 -3.13671875 765.00390625 Z M525 689 C525.66 689.66 526.32 690.32 527 691 C527.99 690.67 528.98 690.34 530 690 C528.35 689.67 526.7 689.34 525 689 Z M717 936 C716.01 937.485 716.01 937.485 715 939 C716.32 938.34 717.64 937.68 719 937 C718.34 936.67 717.68 936.34 717 936 Z M713 939 C712.01 940.485 712.01 940.485 711 942 C712.32 941.34 713.64 940.68 715 940 C714.34 939.67 713.68 939.34 713 939 Z M706.375 944.5 C705.59125 945.325 704.8075 946.15 704 947 C707.65316671 945.75023244 708.78065836 945.32901247 711 942 C708.63721264 941.77011494 708.63721264 941.77011494 706.375 944.5 Z M702 947 C701.67 947.66 701.34 948.32 701 949 C701.99 948.67 702.98 948.34 704 948 C703.34 947.67 702.68 947.34 702 947 Z " fill="#F29239" transform="translate(484,25)"/>
<path d="M0 0 C1.559534 0.00323273 1.559534 0.00323273 3.15057373 0.00653076 C18.6374459 0.05803359 33.73269139 0.4950789 49 3.3125 C50.13953125 3.51649414 51.2790625 3.72048828 52.453125 3.93066406 C80.86089188 9.12112572 108.82012094 16.96131803 134.125 31.1953125 C140.97990748 33.85904014 147.89651566 29.41705841 154.25 26.75 C195.04298403 10.10412416 238.70356152 1.09194681 282.75 1.0625 C284.11360657 1.06148788 284.11360657 1.06148788 285.50476074 1.06045532 C324.17979427 1.10595636 361.61759635 8.01368807 392 33.3125 C392.87269531 34.02019531 393.74539063 34.72789062 394.64453125 35.45703125 C418.39243154 55.61469779 431.23826099 86.956141 435 117.3125 C435.11085938 118.16585937 435.22171875 119.01921875 435.3359375 119.8984375 C440.19719938 165.75196173 426.14978768 207.97476758 397.23828125 243.79296875 C394.56071342 247.02752797 391.79330691 250.17786631 389 253.3125 C388.55156738 253.82264648 388.10313477 254.33279297 387.64111328 254.85839844 C368.98869194 276.04303543 346.12866536 293.44966266 321 306.3125 C320.59910156 305.23613281 320.19820312 304.15976562 319.78515625 303.05078125 C311.37754892 281.16986363 297.55132111 264.96827402 276.2265625 254.6640625 C255.79905769 246.10726266 232.51667875 245.49226947 211.875 253.5625 C190.13863878 263.30638606 175.69903325 277.96999819 167 300.3125 C165.54478426 304.61467987 164.21731555 308.93732469 163 313.3125 C160.4375 311.875 160.4375 311.875 158 309.3125 C157.26306847 302.77995309 160.10356773 295.56239822 161.9375 289.375 C162.24324951 288.34012451 162.54899902 287.30524902 162.86401367 286.23901367 C172.95895369 252.96938563 187.88105336 221.03844462 209 193.3125 C209.41926758 192.75191895 209.83853516 192.19133789 210.27050781 191.61376953 C217.54636903 181.90259939 225.56596973 173.02665305 234 164.3125 C234.84812256 163.43150635 234.84812256 163.43150635 235.71337891 162.53271484 C242.75262672 155.24812584 249.98245994 148.52892387 258 142.3125 C259.25406496 141.31790842 260.50795969 140.32310217 261.76171875 139.328125 C277.82607591 126.69614271 294.91883434 115.81732394 313 106.3125 C313.82129395 105.87728027 314.64258789 105.44206055 315.48876953 104.99365234 C339.32144203 92.44752678 364.75212319 81.64832491 391 75.3125 C383.35631667 75.85452213 376.07523996 77.23937807 368.625 79 C367.48087646 79.26981689 366.33675293 79.53963379 365.15795898 79.81762695 C314.24105125 92.02531719 267.99382797 116.18346669 230 152.3125 C229.37931641 152.89918457 228.75863281 153.48586914 228.11914062 154.09033203 C217.95719796 163.75822171 209.10496203 173.86976946 201 185.3125 C200.16154541 186.48111572 200.16154541 186.48111572 199.30615234 187.67333984 C175.75329576 220.74827039 160.84484959 258.0639527 154.2409668 298.08081055 C153.88640253 300.16893862 153.45152856 302.24317242 153 304.3125 C150.45654344 305.58422828 149.68266204 305.04522434 147 304.3125 C145.63323368 304.17320644 144.2625433 304.06884699 142.890625 303.99609375 C142.13652344 303.95419922 141.38242187 303.91230469 140.60546875 303.86914062 C139.43951172 303.81016602 139.43951172 303.81016602 138.25 303.75 C137.45722656 303.70681641 136.66445313 303.66363281 135.84765625 303.61914062 C133.89862185 303.51347009 131.94933252 303.41252034 130 303.3125 C129.79955078 302.37792969 129.59910156 301.44335938 129.39257812 300.48046875 C123.86157798 274.84582177 117.58543232 249.98728976 106 226.3125 C105.56703613 225.42208008 105.13407227 224.53166016 104.68798828 223.61425781 C95.98538134 205.89401744 85.81176623 189.37952095 73 174.3125 C72.0545914 173.18237205 71.10928714 172.05215681 70.1640625 170.921875 C62.0750907 161.30986427 53.57365485 152.46416121 44 144.3125 C43.07832031 143.50167969 42.15664063 142.69085938 41.20703125 141.85546875 C26.68026808 129.16853112 10.69000979 118.9115648 -6 109.3125 C-6.96921387 108.74837402 -6.96921387 108.74837402 -7.95800781 108.17285156 C-39.78338742 89.78216828 -76.76350232 79.23617191 -113 74.3125 C-112.38817871 74.48265625 -111.77635742 74.6528125 -111.14599609 74.828125 C-59.77899808 89.2120321 -10.31663897 111.7954609 30 147.3125 C30.73476563 147.94800781 31.46953125 148.58351563 32.2265625 149.23828125 C33.51245546 150.35255104 34.79264247 151.47344739 36.06640625 152.6015625 C37.43911548 153.81620218 38.82316965 155.01807398 40.21484375 156.2109375 C52.53356554 166.95238373 63.26447595 179.21689702 73 192.3125 C73.47115234 192.93785645 73.94230469 193.56321289 74.42773438 194.20751953 C97.50295268 225.00785265 118.85349215 265.58968078 124.3984375 304.078125 C124 306.3125 124 306.3125 122.03125 308.11328125 C121.1959375 308.61214844 120.360625 309.11101562 119.5 309.625 C118.6646875 310.13675781 117.829375 310.64851563 116.96875 311.17578125 C116.3190625 311.55089844 115.669375 311.92601562 115 312.3125 C114.72542969 311.31734375 114.45085937 310.3221875 114.16796875 309.296875 C109.56846508 293.25303221 102.81725548 280.33635086 91 268.3125 C90.38640625 267.68601562 89.7728125 267.05953125 89.140625 266.4140625 C74.03304577 252.14579323 53.12930337 245.76590498 32.7043457 245.95922852 C12.32132014 246.56855715 -7.1898772 254.36975739 -22.14453125 268.3359375 C-32.44425188 279.30785042 -39.8689651 292.85387784 -44 307.3125 C-61.69469543 300.84347156 -78.5824531 285.04085564 -92.52001953 272.62939453 C-93.86829241 271.42969412 -95.22845618 270.24339108 -96.58984375 269.05859375 C-107.62539989 259.34658892 -118.04772765 248.9886844 -127 237.3125 C-127.85671528 236.24344506 -128.71348899 235.17443694 -129.5703125 234.10546875 C-154.6755878 202.09421157 -161.77229578 164.54733218 -157.46484375 124.609375 C-153.33740814 92.74831178 -140.99865047 65.70658725 -119 42.3125 C-118.4740625 41.72210938 -117.948125 41.13171875 -117.40625 40.5234375 C-100.07780532 21.86883634 -74.26795635 10.87899367 -50.0625 4.5625 C-49.31282959 4.36350098 -48.56315918 4.16450195 -47.79077148 3.95947266 C-32.07643035 0.10329416 -16.08486407 -0.05999062 0 0 Z " fill="#F19239" transform="translate(676,164.6875)"/>
<path d="M0 0 C3.61707406 1.61139792 6.5097127 3.81894893 9.625 6.25 C10.46381714 6.90210449 10.46381714 6.90210449 11.31958008 7.56738281 C12.55258411 8.52651591 13.7843797 9.48720398 15.01513672 10.44921875 C17.08143357 12.06362436 19.15158237 13.67297804 21.22265625 15.28125 C24.25576641 17.63694319 27.2868051 19.99526458 30.31640625 22.35546875 C33.40326016 24.75949848 36.49450067 27.15769289 39.58984375 29.55078125 C47.55069862 35.71140415 55.444709 41.9383652 63.23608398 48.31225586 C67.51114703 51.80586151 71.83094951 55.23374226 76.1875 58.625 C81.88884849 63.07029657 87.42029801 67.68920859 92.91796875 72.3828125 C95.74683013 74.79496524 98.61575122 77.15419998 101.5 79.5 C106.10328104 83.24685666 110.63907651 87.06623705 115.15966797 90.91186523 C118.61141329 93.84262139 122.10213559 96.71710951 125.625 99.5625 C130.3823291 103.43345628 134.9224507 107.50285952 139.4375 111.65234375 C142.90575601 114.8298161 146.44831574 117.91659054 150 121 C151.50047985 122.3119514 153.00048814 123.62444233 154.5 124.9375 C155.1703125 125.52402344 155.840625 126.11054688 156.53125 126.71484375 C157.0159375 127.13894531 157.500625 127.56304687 158 128 C157.67 128.66 157.34 129.32 157 130 C145.12 122.08 133.24 114.16 121 106 C125.51849079 109.61479263 130.06215005 113.1917439 134.625 116.75 C135.36878906 117.33265625 136.11257813 117.9153125 136.87890625 118.515625 C138.43137642 119.7257556 139.99814851 120.91771381 141.57714844 122.09301758 C144 124 144 124 146.21191406 126.2253418 C154.74574757 134.06014936 164.33884434 132.83387625 175.22900391 132.43075562 C180.74485313 132.23134231 186.26251171 132.17323343 191.78125 132.1015625 C192.85697266 132.08459824 193.93269531 132.06763397 195.04101562 132.05015564 C207.19980706 131.89089812 219.00952134 132.9580926 231 135 C232.54953369 135.25740967 232.54953369 135.25740967 234.13037109 135.52001953 C265.83452718 140.9438004 300.42532028 150.54113536 327.7109375 168.19921875 C332.68021308 169.9376172 338.27760889 166.05447217 342.87304688 164.03100586 C379.32142485 147.99168711 417.95003629 137.31701558 457.6875 133.9362793 C458.821875 133.83871338 459.95625 133.74114746 461.125 133.640625 C462.11757813 133.56360352 463.11015625 133.48658203 464.1328125 133.40722656 C470.73845213 132.46902775 474.40641273 130.12104866 478.875 125.3125 C479.93686159 124.20906683 481.0006581 123.10749232 482.06640625 122.0078125 C482.57445801 121.4809082 483.08250977 120.95400391 483.60595703 120.41113281 C485.26270474 118.73407471 487.00416684 117.19906076 488.8125 115.6875 C493.6108658 111.61341583 497.96674177 107.08351998 502.37036133 102.5925293 C505.47477774 99.44546867 508.61855507 96.41686712 511.96875 93.53125 C516.1923881 89.88933509 520.09658163 85.97965701 524 82 C528.52978713 77.38174047 533.12959484 72.9680272 538.03125 68.74609375 C541.33738101 65.81387042 544.40917665 62.65589331 547.5 59.5 C551.21590024 55.70587028 554.94312464 51.99863434 558.96875 48.53125 C563.1923881 44.88933509 567.09658163 40.97965701 571 37 C575.59119163 32.31913666 580.25376514 27.83656612 585.22363281 23.55810547 C588.09873203 21.03626885 590.70058386 18.2705026 593.3359375 15.50390625 C595 14 595 14 597 14 C597.0259364 14.80322819 597.05187281 15.60645638 597.07859516 16.43402481 C597.71462488 36.01848807 598.40916661 55.60008444 599.16812611 75.1801796 C599.5337668 84.64930456 599.87988999 94.11837871 600.17944336 103.58984375 C600.44072322 111.84956291 600.73926343 120.10696802 601.08179587 128.36373115 C601.26174049 132.73222108 601.42350722 137.09961968 601.54059792 141.47028351 C601.65164694 145.59334118 601.81284871 149.71151898 602.0110054 153.83127975 C602.07476703 155.3349256 602.12092358 156.83944994 602.14711189 158.34421921 C602.32256319 167.70397861 604.12639693 173.58634143 610.85928136 180.11353517 C611.33476326 180.55678691 611.81024517 181.00003865 612.30013561 181.45672226 C633.31313138 201.25100698 641.01705962 233.49561699 644 261 C644.13277344 262.17175781 644.26554687 263.34351563 644.40234375 264.55078125 C646.43098988 285.97661911 645.32643175 307.39454449 639 328 C638.51273438 329.71123047 638.51273438 329.71123047 638.015625 331.45703125 C630.6076025 355.80151098 617.14797228 378.45182224 601 398 C600.525625 398.57588867 600.05125 399.15177734 599.5625 399.74511719 C590.8100799 410.30386357 581.53610404 420.18860667 571 429 C570.4829248 429.44150391 569.96584961 429.88300781 569.43310547 430.33789062 C528.74033421 465 528.74033421 465 516 465 C516.03480469 465.62003906 516.06960938 466.24007813 516.10546875 466.87890625 C516.72256651 487.06681868 509.25429907 507.30955663 495.6875 522.25 C481.11616604 537.69026672 462.25537191 548.31337359 440.671875 549.23828125 C416.08343517 549.79961538 396.71176618 542.98592468 378 527 C377.47792969 526.39542969 376.95585938 525.79085937 376.41796875 525.16796875 C375.04576626 523.77963962 375.04576626 523.77963962 372.9765625 524.0390625 C371.81253906 524.32910156 371.81253906 524.32910156 370.625 524.625 C367.59464159 525.3747794 364.64735955 526.05443712 361.55859375 526.53125 C355.44109076 527.25205002 355.44109076 527.25205002 350.75390625 530.69140625 C350.0929056 532.69218595 350.0929056 532.69218595 349.6484375 534.8046875 C348.02508373 540.30062015 343.39082987 544.17580452 338.625 547 C332.61476919 548.65799471 327.52746085 548.9754014 321.75 546.375 C316.26197807 543.24366343 313.26243677 539.27340404 311.36328125 533.29296875 C311.10458252 532.48754639 310.84588379 531.68212402 310.5793457 530.85229492 C310.38816162 530.2410376 310.19697754 529.62978027 310 529 C306.64954478 528.29352718 303.29426232 527.61331328 299.9375 526.9375 C298.99455078 526.73833984 298.05160156 526.53917969 297.08007812 526.33398438 C291.79092561 525.28352551 287.31963041 524.57778519 282 526 C280.00609202 527.28569855 280.00609202 527.28569855 278.4375 529.0625 C262.18808145 544.25149584 239.55951286 548.38374537 218 548 C215.63822154 564.46335462 214.7061778 580.63855351 214.75 597.25 C214.75104736 598.11269501 214.75209473 598.97539001 214.75317383 599.86422729 C214.78162673 610.94518304 215.17299543 621.94891097 216 633 C204.93358539 622.27017937 201.19779576 604.36874986 200.796875 589.4453125 C200.60754098 573.89410468 202.17146768 560.06444238 206 545 C204.845 544.835 203.69 544.67 202.5 544.5 C184.44059216 540.38268218 168.1418414 527.1843597 158 512 C149.86136374 498.65459344 145.52051133 484.66739097 145 469 C143.97712891 468.64421875 143.97712891 468.64421875 142.93359375 468.28125 C139.37175787 466.72561462 136.2624218 464.67837788 133.0625 462.5 C132.40644775 462.05712646 131.75039551 461.61425293 131.07446289 461.15795898 C110.80897993 447.41185053 91.04796613 432.65803251 74 415 C71.52331329 412.50337218 69.03173719 410.03040245 66.4921875 407.59765625 C59.25375581 400.58610078 52.99096578 393.09688103 47 385 C46.60039063 384.46117187 46.20078125 383.92234375 45.7890625 383.3671875 C19.29403526 347.26993562 11.46118676 305.36524729 17.58764648 261.31005859 C20.18905858 244.39577917 24.72719287 226.90228252 33.4375 212.0625 C35.79314186 207.38582173 36.24970132 204.17362077 35.8515625 198.96875 C35.79879654 198.2539296 35.74603058 197.53910919 35.69166565 196.80262756 C34.70895755 184.32535346 33.27958612 171.87983731 31.9375 159.4375 C31.6521775 156.76896715 31.36806661 154.10030576 31.08398438 151.43164062 C30.39350819 144.95397398 29.69855643 138.47679998 29 132 C29.06058594 132.82089111 29.12117187 133.64178223 29.18359375 134.48754883 C29.41040361 137.58677477 29.63359825 140.68623588 29.85449219 143.78588867 C29.99663687 145.76565883 30.14280109 147.74513909 30.2890625 149.72460938 C30.81653558 157.16574746 31.1400727 164.54015605 31 172 C28.21876179 169.21876179 27.93829014 166.10431799 27.15234375 162.375 C26.89371803 161.18609665 26.89371803 161.18609665 26.62986755 159.97317505 C26.05633818 157.31736774 25.49593587 154.65901977 24.9375 152 C24.74158264 151.07652771 24.54566528 150.15305542 24.34381104 149.20159912 C16.42977883 111.81412387 10.15577448 74.10711846 4.35998535 36.34020996 C4.01424885 34.09262962 3.66545809 31.84554832 3.31542969 29.59863281 C2.72341221 25.79608578 2.14121329 21.99209704 1.5625 18.1875 C1.39838623 17.12668213 1.23427246 16.06586426 1.06518555 14.97290039 C0.31267091 9.91921928 -0.17815862 5.10958935 0 0 Z M18 31 C17.90961901 36.15171623 18.15318867 40.91913204 19 46 C19.33 46 19.66 46 20 46 C20.02708567 44.39592672 20.04643483 42.7917215 20.0625 41.1875 C20.07410156 40.29417969 20.08570313 39.40085937 20.09765625 38.48046875 C20.11009967 35.86586209 20.11009967 35.86586209 19 33 C19.66 32.67 20.32 32.34 21 32 C20.01 31.67 19.02 31.34 18 31 Z M20 46 C20 48.97 20 51.94 20 55 C20.33 55 20.66 55 21 55 C21 52.03 21 49.06 21 46 C20.67 46 20.34 46 20 46 Z M21 55 C21 57.64 21 60.28 21 63 C21.33 63 21.66 63 22 63 C22 60.36 22 57.72 22 55 C21.67 55 21.34 55 21 55 Z M22 65 C22 67.31 22 69.62 22 72 C22.33 72 22.66 72 23 72 C23 69.69 23 67.38 23 65 C22.67 65 22.34 65 22 65 Z M23 74 C23 75.98 23 77.96 23 80 C23.33 80 23.66 80 24 80 C24 78.02 24 76.04 24 74 C23.67 74 23.34 74 23 74 Z M24 84 C24 85.98 24 87.96 24 90 C24.33 90 24.66 90 25 90 C25 88.02 25 86.04 25 84 C24.67 84 24.34 84 24 84 Z M25 93 C25 94.98 25 96.96 25 99 C25.33 99 25.66 99 26 99 C26 97.02 26 95.04 26 93 C25.67 93 25.34 93 25 93 Z M112 100 C112.33 100.66 112.66 101.32 113 102 C113.66 101.67 114.32 101.34 115 101 C114.01 100.67 113.02 100.34 112 100 Z M26 103 C26 105.31 26 107.62 26 110 C26.33 110 26.66 110 27 110 C27 107.69 27 105.38 27 103 C26.67 103 26.34 103 26 103 Z M116 103 C116.33 103.66 116.66 104.32 117 105 C117.66 104.67 118.32 104.34 119 104 C118.01 103.67 117.02 103.34 116 103 Z M27 112 C27 114.97 27 117.94 27 121 C27.33 121 27.66 121 28 121 C28 118.03 28 115.06 28 112 C27.67 112 27.34 112 27 112 Z M71 181 C69.77023437 182.13501953 69.77023437 182.13501953 68.515625 183.29296875 C44.15764152 206.4784406 31.13820822 241.69012489 29.890625 274.91259766 C28.94027545 313.46709107 36.38919129 346.52554224 61 377 C61.72703125 377.93070313 62.4540625 378.86140625 63.203125 379.8203125 C69.49027132 387.58798037 76.46001315 394.67120163 83.5 401.75 C84.22669891 402.48459946 84.22669891 402.48459946 84.96807861 403.23403931 C91.62954634 409.95137814 98.56315915 416.14775405 106 422 C106.69899414 422.5583252 107.39798828 423.11665039 108.11816406 423.69189453 C116.60609936 430.43558695 125.36172028 436.72745514 134.375 442.75 C135.28491699 443.3586792 136.19483398 443.9673584 137.13232422 444.59448242 C141.83485013 447.75662451 141.83485013 447.75662451 147 450 C147.42410156 448.76765625 147.84820313 447.5353125 148.28515625 446.265625 C156.31910824 423.38657868 167.89507059 405.79211598 189.875 394.1875 C209.90423823 384.62758673 232.91652035 382.8703436 254 390 C276.24730882 398.78445192 292.35756474 414.04655883 302 436 C303.98509031 441.23341992 305.50874724 446.60854772 307 452 C309.97 450.02 312.94 448.04 316 446 C315.4441935 438.52401122 313.6862484 431.82457895 311.4375 424.6875 C310.89851074 422.96672241 310.89851074 422.96672241 310.34863281 421.21118164 C297.72075693 381.59328893 277.81515021 344.9732424 250 314 C249.51708496 313.45537109 249.03416992 312.91074219 248.53662109 312.34960938 C237.36867574 299.77588258 225.22307265 288.5379487 211.81835938 278.38574219 C209.95342716 276.9645076 208.10906905 275.51927862 206.265625 274.0703125 C196.03548907 266.11109036 185.22550317 259.45623464 174 253 C173.26587891 252.56977539 172.53175781 252.13955078 171.77539062 251.69628906 C158.31826254 243.81038738 144.25337118 237.30959002 130 231 C129.28279785 230.68047363 128.5655957 230.36094727 127.82666016 230.03173828 C112.53492739 223.30175124 96.08711731 218.44761479 80 214 C139.02816824 223.19297909 195.40513264 246.2804032 239.33984375 287.52734375 C241.49351994 289.52921897 243.67980983 291.43187709 245.9375 293.3125 C256.20614029 302.25753177 265.11465479 312.94145508 273 324 C273.51643066 324.71945801 274.03286133 325.43891602 274.56494141 326.18017578 C299.82631883 361.73186044 313.39890461 400.61018041 322 443 C323.16917969 443.06058594 324.33835937 443.12117188 325.54296875 443.18359375 C327.09115614 443.26804034 328.63933268 443.35268625 330.1875 443.4375 C331.34088867 443.49647461 331.34088867 443.49647461 332.51757812 443.55664062 C336.43251075 443.77507034 340.17120688 444.08692108 344 445 C345.47541451 440.1311321 346.61554795 435.25674602 347.6472168 430.27587891 C355.578848 392.10510451 369.76838502 356.53568161 393 325 C393.67458252 324.0730835 393.67458252 324.0730835 394.36279297 323.12744141 C407.34444523 305.36799059 423.43953988 288.28635647 441 275 C441.53351074 274.59007812 442.06702148 274.18015625 442.61669922 273.7578125 C479.83057696 245.24369365 534.67567357 215 583 215 C582.44989258 215.1544458 581.89978516 215.3088916 581.33300781 215.46801758 C555.47380808 222.81884262 530.98556856 232.90222261 507 245 C506.18966309 245.40460449 505.37932617 245.80920898 504.54443359 246.22607422 C493.5348485 251.7485292 483.18288492 258.07713941 473 265 C472.3905957 265.41362793 471.78119141 265.82725586 471.15332031 266.25341797 C456.88214611 276.01811273 443.45974854 287.01325678 431 299 C430.43007324 299.5480127 429.86014648 300.09602539 429.27294922 300.66064453 C421.63763838 308.04852429 414.5105465 315.58552897 408 324 C407.00719327 325.24143182 406.01365217 326.48227657 405.01953125 327.72265625 C378.54136378 361.1242167 356.30923027 404.34198116 349.5625 446.75 C350.20888079 450.07424405 352.37627963 451.0270286 355 453 C355.35191406 451.85144531 355.70382812 450.70289063 356.06640625 449.51953125 C363.23836232 426.70191234 374.80799782 408.4052738 396.37890625 396.82421875 C415.57787461 386.93446384 438.2297534 384.53057893 459 391 C479.1667689 397.62457951 495.79814352 411.0761597 506.2890625 429.61328125 C509.29666881 435.56669374 511.67116024 441.75563845 514 448 C537.49622547 437.45927895 557.49966041 420.6547562 576 403 C576.72445312 402.32839844 577.44890625 401.65679687 578.1953125 400.96484375 C584.52922355 394.92583139 589.74705013 387.97182769 595 381 C595.43634766 380.42443359 595.87269531 379.84886719 596.32226562 379.25585938 C623.74383453 342.84634073 636.53146641 301.29136716 630.75390625 255.859375 C625.62341976 220.50159185 609.65173406 188.90373282 580.75 167.25 C573.29637647 161.8605598 565.410904 157.68623486 557 154 C556.37577148 153.72317383 555.75154297 153.44634766 555.10839844 153.16113281 C489.49535086 124.69791123 406.01111995 142.11928258 342.02661133 166.47412109 C341.18767334 166.79074707 340.34873535 167.10737305 339.484375 167.43359375 C338.75959961 167.71259521 338.03482422 167.99159668 337.28808594 168.27905273 C332.12323833 169.90643163 328.84253015 170.40412312 323.89453125 168.0078125 C322.44046875 167.32755005 322.44046875 167.32755005 320.95703125 166.63354492 C319.91933594 166.1357251 318.88164063 165.63790527 317.8125 165.125 C243.67056223 131.1341925 134.71100415 119.92604073 71 181 Z M298 506 C297.67 506.99 297.34 507.98 297 509 C299.18537367 509.50921328 301.37342431 510.00694437 303.5625 510.5 C304.78066406 510.7784375 305.99882813 511.056875 307.25390625 511.34375 C310.92222707 511.98637554 314.28502603 512.11474823 318 512 C318.33 511.01 318.66 510.02 319 509 C316.25071558 508.49576443 313.50068857 507.99646574 310.75 507.5 C309.97269531 507.35691406 309.19539063 507.21382812 308.39453125 507.06640625 C307.64042969 506.93105469 306.88632812 506.79570313 306.109375 506.65625 C305.41811523 506.53056641 304.72685547 506.40488281 304.01464844 506.27539062 C301.67837306 505.90971022 301.67837306 505.90971022 298 506 Z M350.3125 507.375 C349.62349609 507.50132812 348.93449219 507.62765625 348.22460938 507.7578125 C346.46816846 508.10322861 344.73122477 508.54474427 343 509 C342.67 509.66 342.34 510.32 342 511 C347.77611381 513.8880569 357.05768044 510.68178855 363 509 C362.67 508.01 362.34 507.02 362 506 C357.95062878 506 354.26005785 506.59375163 350.3125 507.375 Z " fill="#010101" transform="translate(484,25)"/>
<path d="M0 0 C1.79427332 1.42581112 3.46649225 2.93132416 5.14013672 4.49682617 C6.37988683 5.60877035 7.62077712 6.7194446 8.86279297 7.82885742 C9.46494629 8.37364746 10.06709961 8.9184375 10.6875 9.47973633 C12.91838677 11.46750954 15.23197493 13.33406815 17.57763672 15.18432617 C22.89974713 19.39331545 28.14459922 23.69298404 33.39013672 27.99682617 C35.22323833 29.49710934 37.05657099 30.99711025 38.89013672 32.49682617 C71.89013672 59.49682617 71.89013672 59.49682617 74.64404297 61.75073242 C76.46342634 63.23884827 78.28372791 64.72584229 80.10498047 66.21166992 C86.90422802 71.76227517 93.65609008 77.36749225 100.39013672 82.99682617 C97.2110318 85.11622945 94.91738978 85.75922389 91.22558594 86.66088867 C89.95351288 86.97461426 88.68143982 87.28833984 87.37081909 87.61157227 C85.97885765 87.94847583 84.58685838 88.28522319 83.19482422 88.62182617 C81.76323608 88.97240893 80.33177008 89.32349077 78.90042114 89.67504883 C75.12730402 90.60022097 71.35244066 91.51806903 67.57720947 92.43457031 C64.51685351 93.17879563 61.45775852 93.92812334 58.39872551 94.67776489 C54.72700324 95.5774702 51.05475445 96.47501544 47.38232422 97.37182617 C46.69111355 97.54063293 45.99990288 97.7094397 45.28774643 97.88336182 C38.00382052 99.6600438 30.71735315 101.40626692 23.39013672 102.99682617 C24.25400391 104.72456055 25.11790057 106.45228019 25.98193359 108.17993164 C26.714225 109.6448408 27.44599334 111.11001154 28.17724609 112.57543945 C29.7845855 115.79511445 31.39737211 119.01098761 33.03466797 122.21557617 C33.48197266 123.09213867 33.92927734 123.96870117 34.39013672 124.87182617 C34.97794922 126.01264648 34.97794922 126.01264648 35.57763672 127.17651367 C36.39013672 128.99682617 36.39013672 128.99682617 36.39013672 130.99682617 C35.58382812 131.45532959 34.77751953 131.91383301 33.94677734 132.38623047 C30.91931752 134.10884815 27.89273086 135.8329811 24.86669922 137.55810547 C23.56365382 138.30056451 22.26027586 139.04244024 20.95654297 139.78369141 C19.06891738 140.85706132 17.18230585 141.93217977 15.29638672 143.00854492 C14.68786865 143.3556955 14.07935059 143.70284607 13.45239258 144.06051636 C10.12015537 145.97167586 6.84299516 147.94386704 3.60888672 150.01635742 C0.39013672 151.99682617 0.39013672 151.99682617 -1.60986328 151.99682617 C-1.60986328 152.65682617 -1.60986328 153.31682617 -1.60986328 153.99682617 C-1.07490234 154.23916992 -0.53994141 154.48151367 0.01123047 154.73120117 C3.00867829 156.32590248 5.70881202 158.25980989 8.45263672 160.24682617 C9.05406494 160.67938721 9.65549316 161.11194824 10.27514648 161.55761719 C17.10748217 166.48686253 23.88233282 171.49493761 30.65576172 176.50463867 C33.73965989 178.78409657 36.83273194 181.04989415 39.93701172 183.30151367 C40.63769775 183.81077393 41.33838379 184.32003418 42.06030273 184.84472656 C43.37920637 185.8022605 44.69993642 186.7572851 46.02270508 187.70947266 C47.49636511 188.78113218 48.94628048 189.88533744 50.39013672 190.99682617 C50.39013672 191.32682617 50.39013672 191.65682617 50.39013672 191.99682617 C20.03013672 192.32682617 -10.32986328 192.65682617 -41.60986328 192.99682617 C-35.66986328 206.19682617 -29.72986328 219.39682617 -23.60986328 232.99682617 C-17.87108092 246.01323475 -17.87108092 246.01323475 -15.24212646 252.05657959 C-9.32838605 265.64961814 -3.32990688 279.189943 3.04003906 292.57641602 C3.71220459 294.00268311 3.71220459 294.00268311 4.39794922 295.45776367 C4.78611816 296.27035645 5.17428711 297.08294922 5.57421875 297.92016602 C6.39013672 299.99682617 6.39013672 299.99682617 6.39013672 302.99682617 C-31.11304418 296.34913263 -70.84148198 265.13722259 -98.28955078 240.09838867 C-100.3038406 238.27399823 -102.35134942 236.50588815 -104.42236328 234.74682617 C-113.08528031 227.19318511 -121.28838312 218.85417692 -128.60986328 209.99682617 C-129.05765137 209.46283203 -129.50543945 208.92883789 -129.96679688 208.37866211 C-155.66604523 177.68393266 -185.66375444 136.22435445 -192.60986328 95.99682617 C-191.24473519 84.0836896 -173.95106348 72.20455541 -164.96142578 65.06323242 C-133.45004536 40.60228882 -97.20759044 23.7618177 -59.60986328 10.99682617 C-58.82224609 10.72612305 -58.03462891 10.45541992 -57.22314453 10.17651367 C-48.90268188 7.33829481 -40.58412324 5.23579224 -31.91455078 3.75463867 C-28.7177858 3.20752614 -25.54334829 2.58518022 -22.36767578 1.92651367 C-21.4740332 1.74161377 -20.58039063 1.55671387 -19.65966797 1.36621094 C-17.91730539 1.00345728 -16.1757197 0.63694543 -14.43505859 0.26611328 C-3.26456595 -2.03428898 -3.26456595 -2.03428898 0 0 Z " fill="#F4BB8B" transform="translate(684.60986328125,705.003173828125)"/>
<path d="M0 0 C16.64532369 2.26277212 33.77649218 19.33764671 46 30 C46.680625 30.58007812 47.36125 31.16015625 48.0625 31.7578125 C57.82984401 40.13583603 67.45144175 48.87525548 75.90234375 58.58984375 C78.17172369 61.19730636 80.52081615 63.71897605 82.875 66.25 C88.06622957 71.96115241 92.81724338 77.9509976 97.51416016 84.06835938 C99.06791462 86.08829123 100.63306483 88.0990457 102.19921875 90.109375 C109.49139326 99.50808143 116.41054935 109.09652842 123 119 C123.66032227 119.9885498 123.66032227 119.9885498 124.33398438 120.99707031 C171.49252536 191.87257097 200.05053517 269.98336181 208 355 C208.09571289 355.95672607 208.19142578 356.91345215 208.29003906 357.89916992 C209.40172311 370.71043204 209.24389881 383.58850179 209.25 396.4375 C209.25101212 398.34941635 209.25101212 398.34941635 209.25204468 400.29995728 C209.23598666 419.39473883 208.75724641 438.07921068 206 457 C205.83371094 458.20333984 205.66742187 459.40667969 205.49609375 460.64648438 C199.22733077 505.15470153 186.01993861 549.09126932 165.07617188 588.9375 C163.85850147 591.27118412 162.67154251 593.61940798 161.484375 595.96875 C155.30916014 608.0944028 148.5205257 619.66115828 141 631 C140.36916504 631.95156982 140.36916504 631.95156982 139.72558594 632.92236328 C134.83843709 640.24117635 129.62914352 647.23488517 124 654 C122.84951172 655.42892578 122.84951172 655.42892578 121.67578125 656.88671875 C114.90702034 665.15197442 107.46738648 672.74759752 99.9375 680.3125 C99.430979 680.82419739 98.92445801 681.33589478 98.40258789 681.86309814 C91.60534604 688.71501465 84.56738981 694.99075497 77 701 C75.70613643 702.07261615 74.41538371 703.14900488 73.12890625 704.23046875 C-2.05292029 766.82830193 -99.58486209 797.49232064 -211 807 C-211.82967285 807.05784668 -212.6593457 807.11569336 -213.51416016 807.17529297 C-278.29240669 811.59527051 -352.33978565 809.2078046 -415 791 C-415.96196289 790.72462402 -416.92392578 790.44924805 -417.91503906 790.16552734 C-472.12178758 774.48301851 -526.26213473 751.48621899 -572 718 C-572.67063477 717.51047852 -573.34126953 717.02095703 -574.03222656 716.51660156 C-585.90880352 707.80932036 -597.3204655 698.7054498 -608.10546875 688.671875 C-610.6577539 686.31591948 -613.25576246 684.03057999 -615.875 681.75 C-626.57208315 672.11747408 -636.03623865 661.24487158 -644.67773438 649.75488281 C-646.00699452 647.99071703 -647.35447286 646.24155427 -648.703125 644.4921875 C-673.31032487 612.19633857 -698.78449573 563.91639008 -697.35693359 521.94702148 C-696.71736251 518.45825308 -694.76441541 516.0310914 -692.5 513.4375 C-692.01660156 512.85524658 -691.53320312 512.27299316 -691.03515625 511.6730957 C-681.47880212 500.41727149 -670.77531894 489.90928165 -659 481 C-658.19973389 480.38511719 -658.19973389 480.38511719 -657.38330078 479.7578125 C-590.58234741 428.57340391 -506.79621504 407.21659028 -424.4375 398.75 C-423.62851257 398.66682526 -422.81952515 398.58365051 -421.98602295 398.49795532 C-313.8695817 387.51684017 -205.76590157 398.43318322 -60.1875 482.375 C-58.7826973 483.57289378 -57.38235786 484.77627337 -56 486 C-56.66 486.66 -57.32 487.32 -58 488 C-58.60658447 487.63874023 -59.21316895 487.27748047 -59.83813477 486.90527344 C-121.75239349 450.13878312 -188.898822 425.24454841 -260.6875 416.75 C-261.38707825 416.66682526 -262.08665649 416.58365051 -262.80743408 416.49795532 C-277.75073803 414.74498658 -292.63242927 413.80196193 -307.6875 413.8125 C-308.36831635 413.81277191 -309.04913269 413.81304382 -309.75057983 413.81332397 C-387.59262861 413.95190595 -466.07235882 422.51317242 -665.35546875 524.22265625 C-667.30179079 526.32616344 -668.00498962 527.30184313 -667.984375 530.1862793 C-667.3660564 537.31046889 -665.96952404 543.94505914 -664 550.8125 C-663.69022217 551.89708496 -663.38044434 552.98166992 -663.0612793 554.09912109 C-652.66629336 589.3798525 -633.91458879 621.74480971 -609.04296875 648.7734375 C-607.17040692 650.81427926 -605.36170466 652.89463697 -603.5625 655 C-588.17986922 672.62593111 -569.27187089 687.49938524 -549.99951172 700.63574219 C-548.13899884 701.90516172 -546.28954701 703.18923329 -544.44140625 704.4765625 C-507.62821733 729.84683916 -466.27402464 748.75464458 -424 763 C-422.20320801 763.60884033 -422.20320801 763.60884033 -420.37011719 764.22998047 C-384.30455266 776.19520477 -345.9967864 780.09075531 -308.33648682 783.77148438 C-306.22828238 783.97767328 -304.12073851 784.18964795 -302.01318359 784.40234375 C-260.77754078 788.38981865 -218.15596262 787.54555485 -177 783 C-175.99431976 782.89108429 -175.99431976 782.89108429 -174.96832275 782.77996826 C-79.23137 772.35213058 14.66960547 736.44625805 110.9375 644.25 C112.30052989 642.50689447 113.65461601 640.75676102 115 639 C115.7940625 638.01128906 116.588125 637.02257812 117.40625 636.00390625 C123.50895603 628.3571706 128.76382462 620.32448771 133.81494141 611.95263672 C134.90517543 610.1562437 136.01615502 608.37522803 137.13671875 606.59765625 C171.55879452 551.43130936 190.88587278 487.63030533 196 423 C196.05784668 422.30165039 196.11569336 421.60330078 196.17529297 420.88378906 C203.58570457 327.95678776 180.13625538 232.16664351 132 149 C131.44489746 148.03964844 130.88979492 147.07929688 130.31787109 146.08984375 C123.58314104 134.46299639 116.66814208 123.03577058 109 112 C108.5270752 111.31599121 108.05415039 110.63198242 107.56689453 109.92724609 C98.58264245 96.96103783 89.21826306 84.43030303 78.93359375 72.4609375 C77.26831898 70.52228608 75.64995482 68.5608604 74.05664062 66.56201172 C68.75991123 59.93636652 63.11487763 53.80223685 57.09863281 47.83789062 C55.62587477 46.37586839 54.16414955 44.90342512 52.703125 43.4296875 C46.46917827 37.18608676 39.93794217 31.45788327 33 26 C32.27458008 25.42056641 31.54916016 24.84113281 30.80175781 24.24414062 C28.81754293 22.66706642 26.82001589 21.10978023 24.8125 19.5625 C24.10488525 19.01609863 23.39727051 18.46969727 22.66821289 17.90673828 C16.9629149 13.57396801 11.03241931 9.73368488 4.82543945 6.15844727 C3.16987839 5.18133626 1.57698397 4.09943162 0 3 C0 2.01 0 1.02 0 0 Z " fill="#000000" transform="translate(1147,266)"/>
<path d="M0 0 C5.34155597 -0.1817807 10.05193293 0.42402752 15.25 1.625 C16.03084961 1.80321289 16.81169922 1.98142578 17.61621094 2.16503906 C26.5732743 4.27826239 35.29423486 7.0308152 44 10 C44.85045898 10.28858887 45.70091797 10.57717773 46.57714844 10.87451172 C87.3500757 24.85099346 127.84802718 45.09675675 159.59375 74.76953125 C161.61427443 76.64245244 163.66833166 78.4470652 165.75390625 80.24609375 C176.76202243 89.85030972 187.12449102 100.39476506 196 112 C197.00014564 113.26133451 198.00154612 114.52167459 199.00390625 115.78125 C217.62793139 139.38524415 232.2029724 165.94963725 243 194 C243.45503906 195.16660156 243.91007812 196.33320313 244.37890625 197.53515625 C247.02753002 204.6341322 249.23056839 211.86016561 251.375 219.125 C251.78806396 220.49567627 251.78806396 220.49567627 252.20947266 221.89404297 C252.58144775 223.18785889 252.58144775 223.18785889 252.9609375 224.5078125 C253.29810791 225.66240967 253.29810791 225.66240967 253.64208984 226.84033203 C254.03569145 229.21536598 253.74541347 230.7315464 253 233 C252.01 233 251.02 233 250 233 C249.76216797 231.89205078 249.76216797 231.89205078 249.51953125 230.76171875 C245.84913975 214.80261315 238.46131566 201.65858443 227 190 C226.38511719 189.37222656 225.77023437 188.74445313 225.13671875 188.09765625 C210.02977834 173.83178747 189.12707071 167.45342611 168.7043457 167.64672852 C148.28602288 168.25711232 128.87891268 176.08148996 113.86328125 190.00390625 C106.8932873 197.47071319 101.56654453 205.90272698 97 215 C92.73790775 214.08889006 89.45161986 212.00266077 85.8125 209.6875 C85.11487549 209.24672119 84.41725098 208.80594238 83.69848633 208.35180664 C63.47368046 195.43885525 43.1967284 180.78393897 28 162 C27.1020479 160.93708975 26.20355811 159.87463361 25.3046875 158.8125 C-3.42080714 124.40827513 -14.71249315 86.42280332 -12.83203125 42.03515625 C-11.36351597 28.3347725 -6.77687109 12.06665449 0 0 Z " fill="#F4BB8B" transform="translate(540,243)"/>
<path d="M0 0 C4.7881738 11.49968708 8.67673284 22.73720145 11 35 C11.17587646 35.90621094 11.35175293 36.81242187 11.53295898 37.74609375 C15.18642651 57.82462193 13.26128634 77.41691594 8 97 C7.79133301 97.79809082 7.58266602 98.59618164 7.36767578 99.41845703 C2.199946 118.55591299 -7.82357383 136.45739459 -20 152 C-20.65226562 152.86109375 -21.30453125 153.7221875 -21.9765625 154.609375 C-27.14958944 161.29386249 -32.87808185 167.46628366 -38.68115234 173.60205078 C-39.74049438 174.7249298 -40.78819822 175.85878313 -41.83203125 176.99609375 C-55.03437382 190.93375666 -72.73214831 202.32772111 -89 212.3125 C-89.77182617 212.786875 -90.54365234 213.26125 -91.33886719 213.75 C-96.73845427 217 -96.73845427 217 -99 217 C-99.67482422 215.69289063 -99.67482422 215.69289063 -100.36328125 214.359375 C-110.41683644 195.50196444 -126.12417865 180.42038752 -146.79296875 173.71484375 C-170.90192065 166.62696432 -193.92050593 169.13898893 -216 181.125 C-226.7882944 187.66848837 -234.45164628 195.86416579 -241.2578125 206.34765625 C-243 209 -243 209 -245 211 C-244.45507269 204.08437704 -241.95692004 198.04316922 -239.4375 191.625 C-238.9842334 190.46395752 -238.5309668 189.30291504 -238.06396484 188.10668945 C-219.60538787 141.34344616 -188.40819926 96.53063944 -148 66 C-146.79132654 65.06293855 -145.58301999 64.12540372 -144.375 63.1875 C-106.57591379 34.09107048 -63.22257559 13.98806972 -17.125 2.0625 C-15.92194214 1.74490723 -15.92194214 1.74490723 -14.69458008 1.42089844 C-9.66575726 0.17391608 -5.18060054 -0.19471505 0 0 Z " fill="#F4BB8B" transform="translate(1092,243)"/>
<path d="M0 0 C0.96035156 0.32871094 1.92070313 0.65742188 2.91015625 0.99609375 C19.56569763 7.20699886 32.41492103 20.06148341 40 36 C46.62545714 53.74172565 46.63951206 70.78442523 39.6796875 88.328125 C32.21057212 104.24591188 19.11310569 117.14329419 2.51953125 123.2890625 C-15.96021879 129.09400093 -33.29318575 128.62338319 -50.8125 119.8125 C-56.97163723 116.27571936 -62.01803075 112.03496892 -67 107 C-67.62390625 106.40960937 -68.2478125 105.81921875 -68.890625 105.2109375 C-80.71246862 93.12283614 -85.51689343 75.99043154 -85.42236328 59.5559082 C-84.883027 40.76550255 -75.75895322 25.03731553 -62.46875 12.16796875 C-45.90838848 -2.37475379 -20.85605489 -7.84086082 0 0 Z " fill="#FAE2CD" transform="translate(939,431)"/>
<path d="M0 0 C0.82628906 0.25523437 1.65257812 0.51046875 2.50390625 0.7734375 C19.01391143 6.55061427 30.72111667 19.05808172 39 34 C46.82041938 50.80010092 46.88038263 67.71009177 40.96875 85.01953125 C34.71071283 101.48916286 22.71441018 113.92408717 6.91015625 121.4765625 C-8.32595085 128.04749394 -24.84611976 129.68875148 -40.76953125 124.3125 C-61.0613872 116.06816675 -73.31214331 102.55095965 -82.0078125 82.69921875 C-87.51881088 68.9217228 -86.39094352 51.55758117 -81 38 C-73.80160239 21.31458379 -60.71311747 8.08577832 -43.86328125 1.03125 C-29.37438355 -4.18712516 -14.66342196 -4.83871887 0 0 Z " fill="#FAE3D0" transform="translate(731,429)"/>
<path d="M0 0 C3.61707406 1.61139792 6.5097127 3.81894893 9.625 6.25 C10.46381714 6.90210449 10.46381714 6.90210449 11.31958008 7.56738281 C12.55258411 8.52651591 13.7843797 9.48720398 15.01513672 10.44921875 C17.08143357 12.06362436 19.15158237 13.67297804 21.22265625 15.28125 C24.25576641 17.63694319 27.2868051 19.99526458 30.31640625 22.35546875 C33.40326016 24.75949848 36.49450067 27.15769289 39.58984375 29.55078125 C47.55069862 35.71140415 55.444709 41.9383652 63.23608398 48.31225586 C67.51114703 51.80586151 71.83094951 55.23374226 76.1875 58.625 C81.88884849 63.07029657 87.42029801 67.68920859 92.91796875 72.3828125 C95.74683013 74.79496524 98.61575122 77.15419998 101.5 79.5 C106.10328104 83.24685666 110.63907651 87.06623705 115.15966797 90.91186523 C118.61141329 93.84262139 122.10213559 96.71710951 125.625 99.5625 C130.3823291 103.43345628 134.9224507 107.50285952 139.4375 111.65234375 C142.90575601 114.8298161 146.44831574 117.91659054 150 121 C151.50047985 122.3119514 153.00048814 123.62444233 154.5 124.9375 C155.1703125 125.52402344 155.840625 126.11054688 156.53125 126.71484375 C157.0159375 127.13894531 157.500625 127.56304687 158 128 C157.67 128.66 157.34 129.32 157 130 C145.12 122.08 133.24 114.16 121 106 C125.51847437 109.61477949 130.06156192 113.19251688 134.625 116.75 C135.4195459 117.37036133 136.2140918 117.99072266 137.03271484 118.62988281 C142.33403452 122.75253344 147.70005784 126.72976968 153.2265625 130.546875 C153.81179688 131.02640625 154.39703125 131.5059375 155 132 C155 132.66 155 133.32 155 134 C153.87207031 134.14695313 152.74414062 134.29390625 151.58203125 134.4453125 C111.02916734 140.07656423 72.80811533 158.57536639 47.26074219 191.28564453 C44.37080857 195.21537223 41.90571249 199.39729173 39.4609375 203.61328125 C38.97882812 204.40089844 38.49671875 205.18851563 38 206 C37.67 206 37.34 206 37 206 C34.21055217 181.34656129 31.61189714 156.67273994 29 132 C29.06058594 132.82089111 29.12117187 133.64178223 29.18359375 134.48754883 C29.41040361 137.58677477 29.63359825 140.68623588 29.85449219 143.78588867 C29.99663687 145.76565883 30.14280109 147.74513909 30.2890625 149.72460938 C30.81653558 157.16574746 31.1400727 164.54015605 31 172 C28.21876179 169.21876179 27.93829014 166.10431799 27.15234375 162.375 C26.89371803 161.18609665 26.89371803 161.18609665 26.62986755 159.97317505 C26.05633818 157.31736774 25.49593587 154.65901977 24.9375 152 C24.74158264 151.07652771 24.54566528 150.15305542 24.34381104 149.20159912 C16.42977883 111.81412387 10.15577448 74.10711846 4.35998535 36.34020996 C4.01424885 34.09262962 3.66545809 31.84554832 3.31542969 29.59863281 C2.72341221 25.79608578 2.14121329 21.99209704 1.5625 18.1875 C1.39838623 17.12668213 1.23427246 16.06586426 1.06518555 14.97290039 C0.31267091 9.91921928 -0.17815862 5.10958935 0 0 Z M18 31 C17.90961901 36.15171623 18.15318867 40.91913204 19 46 C19.33 46 19.66 46 20 46 C20.02708567 44.39592672 20.04643483 42.7917215 20.0625 41.1875 C20.07410156 40.29417969 20.08570313 39.40085937 20.09765625 38.48046875 C20.11009967 35.86586209 20.11009967 35.86586209 19 33 C19.66 32.67 20.32 32.34 21 32 C20.01 31.67 19.02 31.34 18 31 Z M20 46 C20 48.97 20 51.94 20 55 C20.33 55 20.66 55 21 55 C21 52.03 21 49.06 21 46 C20.67 46 20.34 46 20 46 Z M21 55 C21 57.64 21 60.28 21 63 C21.33 63 21.66 63 22 63 C22 60.36 22 57.72 22 55 C21.67 55 21.34 55 21 55 Z M22 65 C22 67.31 22 69.62 22 72 C22.33 72 22.66 72 23 72 C23 69.69 23 67.38 23 65 C22.67 65 22.34 65 22 65 Z M23 74 C23 75.98 23 77.96 23 80 C23.33 80 23.66 80 24 80 C24 78.02 24 76.04 24 74 C23.67 74 23.34 74 23 74 Z M24 84 C24 85.98 24 87.96 24 90 C24.33 90 24.66 90 25 90 C25 88.02 25 86.04 25 84 C24.67 84 24.34 84 24 84 Z M25 93 C25 94.98 25 96.96 25 99 C25.33 99 25.66 99 26 99 C26 97.02 26 95.04 26 93 C25.67 93 25.34 93 25 93 Z M112 100 C112.33 100.66 112.66 101.32 113 102 C113.66 101.67 114.32 101.34 115 101 C114.01 100.67 113.02 100.34 112 100 Z M26 103 C26 105.31 26 107.62 26 110 C26.33 110 26.66 110 27 110 C27 107.69 27 105.38 27 103 C26.67 103 26.34 103 26 103 Z M116 103 C116.33 103.66 116.66 104.32 117 105 C117.66 104.67 118.32 104.34 119 104 C118.01 103.67 117.02 103.34 116 103 Z M27 112 C27 114.97 27 117.94 27 121 C27.33 121 27.66 121 28 121 C28 118.03 28 115.06 28 112 C27.67 112 27.34 112 27 112 Z " fill="#F29239" transform="translate(484,25)"/>
<path d="M0 0 C0.78769286 17.64731507 1.57025711 35.29484939 2.34690857 52.94265366 C2.70773139 61.13896005 3.07015941 69.33518927 3.43652344 77.53125 C3.75627327 84.68458298 4.07285137 91.83804852 4.38580227 98.99168229 C4.55122871 102.77067983 4.7181195 106.54959843 4.88882446 110.32836151 C5.60586549 126.22324541 6.22629537 142.08538873 6 158 C2.54059318 156.35344446 -0.02926823 154.38526322 -2.9375 151.875 C-33.24538521 126.8519772 -70.59496912 121.35742805 -108.6875 120.4375 C-110.3717532 120.39420592 -112.05599811 120.35058859 -113.74023438 120.30664062 C-117.82673711 120.20070272 -121.9133267 120.09913075 -126 120 C-120.53560709 113.53981278 -114.90195208 107.420365 -108.4375 101.9375 C-103.56892809 97.76306112 -99.11753401 93.16949499 -94.63061523 88.59350586 C-91.52586229 85.44612661 -88.38179637 82.41716982 -85.03125 79.53125 C-80.8076119 75.88933509 -76.90341837 71.97965701 -73 68 C-68.47021287 63.38174047 -63.87040516 58.9680272 -58.96875 54.74609375 C-55.66261899 51.81387042 -52.59082335 48.65589331 -49.5 45.5 C-45.78409976 41.70587028 -42.05687536 37.99863434 -38.03125 34.53125 C-33.8076119 30.88933509 -29.90341837 26.97965701 -26 23 C-21.40880837 18.31913666 -16.74623486 13.83656612 -11.77636719 9.55810547 C-8.90126797 7.03626885 -6.29941614 4.2705026 -3.6640625 1.50390625 C-2 0 -2 0 0 0 Z " fill="#F19239" transform="translate(1081,39)"/>
<path d="M0 0 C5.02658035 1.40528053 9.02146059 3.741771 13.3125 6.625 C14.83263796 7.62865817 16.35351702 8.63119447 17.875 9.6328125 C18.69742188 10.17583008 19.51984375 10.71884766 20.3671875 11.27832031 C23.12576196 13.08223974 25.90303794 14.85350773 28.6875 16.6171875 C44.68813825 26.75291068 60.37893554 37.29291385 76 48 C77.50512596 49.02876637 79.01032188 50.05743039 80.515625 51.0859375 C95.89075378 61.60900014 111.18913665 72.2511907 126.38427734 83.0324707 C131.0162946 86.3183974 135.68938957 89.53766158 140.41015625 92.6953125 C140.93480469 93.12585938 141.45945312 93.55640625 142 94 C142 94.66 142 95.32 142 96 C134.1228609 97.98696924 126.24466747 99.96968797 118.36523724 101.94754982 C114.70320594 102.86690685 111.0415011 103.78751724 107.38061523 104.71142578 C92.50238416 108.46526453 77.61807299 112.16612859 62.64453125 115.5234375 C61.52028244 115.7773526 60.39603363 116.0312677 59.23771667 116.2928772 C58.20641129 116.52026581 57.1751059 116.74765442 56.11254883 116.98193359 C55.21675613 117.17999603 54.32096344 117.37805847 53.39802551 117.5821228 C51 118 51 118 47 118 C47.33322266 118.65597168 47.66644531 119.31194336 48.00976562 119.98779297 C49.5106557 122.94811496 51.00539679 125.91149929 52.5 128.875 C53.02464844 129.90753906 53.54929687 130.94007813 54.08984375 132.00390625 C54.58613281 132.99003906 55.08242188 133.97617187 55.59375 134.9921875 C56.05458984 135.90339355 56.51542969 136.81459961 56.99023438 137.75341797 C58 140 58 140 58 142 C48.43 146.62 38.86 151.24 29 156 C33.15243418 160.17084953 33.15243418 160.17084953 37.53125 163.98046875 C38.16998047 164.49931641 38.80871094 165.01816406 39.46679688 165.55273438 C40.13775391 166.09220703 40.80871094 166.63167969 41.5 167.1875 C42.20705078 167.75919922 42.91410156 168.33089844 43.64257812 168.91992188 C48.9181556 173.16982452 54.27358584 177.3019808 59.66015625 181.41015625 C64.16577421 184.87632855 68.55412524 188.48715117 72.953125 192.08691406 C78.1843187 196.36074853 83.48115085 200.54358896 88.83569336 204.66186523 C90.24128529 205.75240003 91.62348859 206.87298129 93 208 C93 208.33 93 208.66 93 209 C69.28704289 209.13836106 45.58517919 208.94842077 21.875 208.5625 C19.96962463 208.5330278 19.96962463 208.5330278 18.02575684 208.50296021 C2.33415989 208.25659945 -13.32750017 207.82120917 -29 207 C-22.83799879 220.00148796 -16.56414337 232.93511369 -10.10009766 245.78955078 C-5.64783325 254.64822972 -1.30323604 263.54967373 2.93066406 272.51464844 C5.34197256 277.60119868 7.82023897 282.64396614 10.3828125 287.65625 C10.94403809 288.75743164 11.50526367 289.85861328 12.08349609 290.99316406 C13.17412348 293.12456888 14.27309711 295.25172862 15.38134766 297.37402344 C16.11297119 298.80536621 16.11297119 298.80536621 16.859375 300.265625 C17.29733398 301.10899414 17.73529297 301.95236328 18.18652344 302.82128906 C19 305 19 305 18 308 C12.48713232 298.14403791 7.04476159 288.25397654 1.6875 278.3125 C-2.53181158 270.48608826 -6.83971006 262.7202369 -11.25 255 C-16.67399691 245.4867818 -21.86705672 235.85973943 -27 226.1875 C-27.36339478 225.50341064 -27.72678955 224.81932129 -28.10119629 224.11450195 C-32.16476541 216.4577803 -36.17693979 208.78052488 -40 201 C-27.16231531 199.68525848 -14.26648639 199.65324645 -1.375 199.4375 C-0.1853363 199.41632111 1.00432739 199.39514221 2.2300415 199.37332153 C22.15494198 199.01935645 42.07241013 198.86577271 62 199 C62 198.34 62 197.68 62 197 C60.95199219 196.65195312 60.95199219 196.65195312 59.8828125 196.296875 C56.44506349 194.75035376 53.76297937 192.62211837 50.875 190.25 C45.22568423 185.71028966 39.47233817 181.34396688 33.625 177.0625 C32.82545898 176.47573486 32.02591797 175.88896973 31.20214844 175.28442383 C29.59329178 174.10374111 27.98424348 172.92331949 26.375 171.74316406 C22.61716839 168.98505164 18.86612521 166.21823128 15.125 163.4375 C14.47740723 162.96127197 13.82981445 162.48504395 13.16259766 161.99438477 C12.2506665 161.31460571 12.2506665 161.31460571 11.3203125 160.62109375 C10.53551514 160.03992798 10.53551514 160.03992798 9.73486328 159.44702148 C7.33676506 157.44680644 5.18578526 155.22745252 3 153 C7.66041488 150.57376023 12.32353028 148.15282409 16.98925781 145.73681641 C18.57693105 144.91373489 20.16384917 144.08919512 21.75 143.26318359 C24.02668664 142.07788361 26.30601486 140.8978109 28.5859375 139.71875 C29.65320572 139.16096863 29.65320572 139.16096863 30.74203491 138.59191895 C35.77225659 136 35.77225659 136 38 136 C37.49210938 134.98421875 36.98421875 133.9684375 36.4609375 132.921875 C32.30729167 124.61458333 28.15364583 116.30729167 24 108 C40.4939761 103.13405337 57.1195778 98.83603729 73.79211426 94.63458252 C77.21292229 93.77178492 80.63278083 92.90523964 84.05273438 92.0390625 C90.70092768 90.35582327 97.3501175 88.67655311 104 87 C103.1536499 86.35281006 102.3072998 85.70562012 101.43530273 85.03881836 C95.24209123 80.2945411 89.08748769 75.51992203 83.0625 70.5625 C78.00121629 66.42217385 72.90659891 62.33347063 67.75 58.3125 C62.36220445 54.10641143 57.08924301 49.78782504 51.85546875 45.390625 C49.13157379 43.1101548 46.38320118 40.86377351 43.625 38.625 C37.59973869 33.70624292 31.70745287 28.63872933 25.81591797 23.56152344 C23.99699352 21.9974147 22.17319921 20.43918924 20.34765625 18.8828125 C4.50898193 5.37392026 4.50898193 5.37392026 0 1 C0 0.67 0 0.34 0 0 Z " fill="#010101" transform="translate(691,704)"/>
<path d="M0 0 C0.33 0 0.66 0 1 0 C4.10869124 16.83242576 0.98230433 33.43746503 -8 48 C-19.07141988 64.05706985 -33.59896262 73.00040169 -52.38671875 77.58203125 C-69.31819623 80.2900553 -85.71427554 76.43712357 -100 67 C-106.24746359 62.12820511 -112.33429054 56.4423869 -117 50 C-117 49.34 -117 48.68 -117 48 C-116.12303467 47.7097998 -115.24606934 47.41959961 -114.3425293 47.12060547 C-76.84396412 34.6478077 -40.24522033 20.01076188 -4.52490234 3.08398438 C-2 2 -2 2 0 2 C0 1.34 0 0.68 0 0 Z " fill="#F8D4B1" transform="translate(982,480)"/>
<path d="M0 0 C0.33 0 0.66 0 1 0 C1 1.65 1 3.3 1 5 C1.80566406 5.23074219 2.61132812 5.46148437 3.44140625 5.69921875 C7.00254466 7.00093016 10.10519921 8.60203107 13.41577148 10.42602539 C41.59758001 25.92069967 72.42934812 36.8139529 103.44921875 45.0390625 C107.70270489 46.19017096 111.84462314 47.53792296 116 49 C110.73414964 60.81541549 97.356212 67.31137047 86.01953125 71.95703125 C69.86979568 77.53527109 53.24756347 76.29624366 37.67578125 69.5625 C20.15360982 60.93620022 9.33626961 46.55942402 2.1875 28.6875 C0.03185454 21.99365356 -0.13536903 15.51868936 -0.0625 8.5625 C-0.05798828 7.73556641 -0.05347656 6.90863281 -0.04882812 6.05664062 C-0.03715811 4.03772854 -0.01922718 2.01885426 0 0 Z " fill="#B3B2B2" transform="translate(646,481)"/>
<path d="M0 0 C1.23441214 23.87328906 1.19815549 47.75211883 1.18867874 71.65047455 C1.18749095 74.9627238 1.18803433 78.27496989 1.18869019 81.58721924 C1.18760758 107.02831954 1.12217741 132.45256943 0.0625 157.875 C0.01902435 158.92436737 -0.02445129 159.97373474 -0.06924438 161.05490112 C-0.19233667 163.90950258 -0.32464151 166.76337919 -0.46484375 169.6171875 C-0.50344513 170.41438705 -0.54204651 171.21158661 -0.58181763 172.03294373 C-0.78777573 175.7706394 -1.13902866 179.35337414 -2 183 C-2.33 183 -2.66 183 -3 183 C-5.08231123 166.00154367 -6.78293029 149.01926043 -8 131.9375 C-8.08271149 130.80363861 -8.16542297 129.66977722 -8.25064087 128.5015564 C-9.90935121 105.61735456 -11.00823854 82.71296182 -11.96072674 59.79011917 C-12.04689144 57.72011069 -12.13446632 55.65016615 -12.22236633 53.58023071 C-12.32929695 51.03992612 -12.43251233 48.49946149 -12.53141785 45.95883179 C-12.57865494 44.83328888 -12.62589203 43.70774597 -12.67456055 42.5480957 C-12.73307442 41.07817924 -12.73307442 41.07817924 -12.79277039 39.5785675 C-12.97860859 37.26617424 -13.35520855 35.22240238 -14 33 C-14.58358276 33.58580338 -15.16716553 34.17160675 -15.76843262 34.77516174 C-21.29666276 40.32351568 -26.82736045 45.86939585 -32.36077118 51.41258335 C-35.2047489 54.26175653 -38.04779857 57.1118425 -40.88867188 59.96411133 C-43.63562934 62.72201719 -46.3850967 65.47739861 -49.13624573 68.23112297 C-50.17997576 69.27668588 -51.22283257 70.32312132 -52.26475525 71.37048531 C-57.48395184 76.61582586 -62.72024381 81.78951627 -68.36279297 86.58421326 C-70.88130083 88.76211134 -73.17375803 91.117704 -75.5 93.5 C-79.25149794 97.30869334 -83.10589769 100.91966876 -87.171875 104.390625 C-89.02937988 106.02586434 -90.76606009 107.73481793 -92.5 109.5 C-95.39999353 112.4454073 -98.43626431 115.15463709 -101.56640625 117.8515625 C-104.76595765 120.67620659 -107.88037408 123.58766366 -111 126.5 C-115.92616392 131.09091915 -120.88287863 135.62161798 -126 140 C-127.19800585 141.02854197 -128.39591262 142.05719934 -129.59375 143.0859375 C-133.05959211 146.06069832 -136.52906652 149.0311819 -140 152 C-140.66 151.67 -141.32 151.34 -142 151 C-136.64492889 144.31262858 -131.13825136 137.86235433 -125.33984375 131.5546875 C-122.7720803 128.75115278 -120.27103125 125.89655125 -117.77734375 123.02734375 C-114.9420304 119.79321709 -112.05073236 116.60977235 -109.16796875 113.41796875 C-107.35952443 111.4009831 -105.5801266 109.36508404 -103.8125 107.3125 C-99.78775231 102.69010996 -95.58142159 98.23821758 -91.39135742 93.76635742 C-87.77716021 89.90826025 -84.18698772 86.03134907 -80.625 82.125 C-70.81467574 71.40309694 -60.93977306 60.73225869 -50.52734375 50.58984375 C-48.56815519 48.5822054 -46.74899873 46.56218683 -44.92944336 44.43383789 C-40.68945705 39.57294072 -36.16657188 35.02270182 -31.6015625 30.46875 C-30.72599701 29.59222778 -29.85043152 28.71570557 -28.94833374 27.81262207 C-27.1124545 25.97606645 -25.27532836 24.1407565 -23.43701172 22.30664062 C-21.5497666 20.42300025 -19.66393414 18.53808835 -17.78076172 16.65039062 C-15.05701765 13.92050668 -12.32987787 11.19406447 -9.6015625 8.46875 C-8.75373199 7.61889526 -7.90590149 6.76904053 -7.03237915 5.89343262 C-6.25421844 5.11842407 -5.47605774 4.34341553 -4.67431641 3.54492188 C-3.98705475 2.85845581 -3.29979309 2.17198975 -2.59170532 1.46472168 C-1 0 -1 0 0 0 Z " fill="#000000" transform="translate(1096,0)"/>
<path d="M0 0 C3.61707406 1.61139792 6.5097127 3.81894893 9.625 6.25 C10.46381714 6.90210449 10.46381714 6.90210449 11.31958008 7.56738281 C12.55258411 8.52651591 13.7843797 9.48720398 15.01513672 10.44921875 C17.08143357 12.06362436 19.15158237 13.67297804 21.22265625 15.28125 C24.25576641 17.63694319 27.2868051 19.99526458 30.31640625 22.35546875 C33.40326016 24.75949848 36.49450067 27.15769289 39.58984375 29.55078125 C47.55069862 35.71140415 55.444709 41.9383652 63.23608398 48.31225586 C67.51114703 51.80586151 71.83094951 55.23374226 76.1875 58.625 C81.88884849 63.07029657 87.42029801 67.68920859 92.91796875 72.3828125 C95.74683013 74.79496524 98.61575122 77.15419998 101.5 79.5 C106.10328104 83.24685666 110.63907651 87.06623705 115.15966797 90.91186523 C118.61141329 93.84262139 122.10213559 96.71710951 125.625 99.5625 C130.3823291 103.43345628 134.9224507 107.50285952 139.4375 111.65234375 C142.90575601 114.8298161 146.44831574 117.91659054 150 121 C151.50047985 122.3119514 153.00048814 123.62444233 154.5 124.9375 C155.1703125 125.52402344 155.840625 126.11054688 156.53125 126.71484375 C157.0159375 127.13894531 157.500625 127.56304687 158 128 C157.67 128.66 157.34 129.32 157 130 C151.32753492 126.23554962 145.65769853 122.46716344 139.98950195 118.69628906 C138.06917784 117.41938325 136.14829785 116.14331294 134.22680664 114.86816406 C122.01544801 106.76342121 109.91200393 98.53933974 98 90 C96.65651489 89.03876221 96.65651489 89.03876221 95.28588867 88.05810547 C93.20734943 86.56509247 91.13359398 85.06581744 89.0625 83.5625 C87.55212666 82.46869017 86.04170868 81.37494198 84.53125 80.28125 C83.40783203 79.46720703 83.40783203 79.46720703 82.26171875 78.63671875 C80.02060267 77.01490936 77.77648685 75.39734868 75.53125 73.78125 C61.19968489 63.46252312 46.91422038 53.0873737 32.95703125 42.265625 C28.37075598 38.75170207 23.69000245 35.37394934 19 32 C19.64005233 43.75297714 21.0366025 55.39790482 22.41177368 67.08242798 C24.64604333 86.13727184 26.67663742 105.19662377 28.3125 124.3125 C28.39335846 125.25174316 28.47421692 126.19098633 28.55752563 127.15869141 C31.25389169 158.68479113 31.25389169 158.68479113 31 172 C28.21876179 169.21876179 27.93829014 166.10431799 27.15234375 162.375 C26.89371803 161.18609665 26.89371803 161.18609665 26.62986755 159.97317505 C26.05633818 157.31736774 25.49593587 154.65901977 24.9375 152 C24.74158264 151.07652771 24.54566528 150.15305542 24.34381104 149.20159912 C16.42977883 111.81412387 10.15577448 74.10711846 4.35998535 36.34020996 C4.01424885 34.09262962 3.66545809 31.84554832 3.31542969 29.59863281 C2.72341221 25.79608578 2.14121329 21.99209704 1.5625 18.1875 C1.39838623 17.12668213 1.23427246 16.06586426 1.06518555 14.97290039 C0.31267091 9.91921928 -0.17815862 5.10958935 0 0 Z " fill="#000000" transform="translate(484,25)"/>
<path d="M0 0 C1.11955078 0.27457031 1.11955078 0.27457031 2.26171875 0.5546875 C3.96034523 1.02706744 5.63988909 1.56746303 7.3125 2.125 C7.3125 11.035 7.3125 19.945 7.3125 29.125 C8.6325 21.865 9.9525 14.605 11.3125 7.125 C15.41222808 8.49157603 16.14015359 10.36635151 18.125 14.08203125 C19.82932891 18.44937408 20.45420926 22.91096932 21.1418457 27.52001953 C22.12663043 33.82569536 23.99349049 39.44067494 26.32421875 45.3671875 C27.3125 48.125 27.3125 48.125 27.3125 51.125 C24.29601121 51.83256031 21.2738839 52.51230706 18.25 53.1875 C17.40244141 53.38666016 16.55488281 53.58582031 15.68164062 53.79101562 C10.51477525 54.92812499 6.57909409 55.14047503 1.3125 54.125 C-0.72775919 54.03850522 -2.77041517 53.99466819 -4.8125 54 C-5.80507813 53.99742187 -6.79765625 53.99484375 -7.8203125 53.9921875 C-10.62585083 54.03391675 -10.62585083 54.03391675 -13.04907227 54.68188477 C-15.92795708 55.16538397 -17.91924688 54.92470769 -20.76953125 54.34765625 C-21.70087891 54.16396484 -22.63222656 53.98027344 -23.59179688 53.79101562 C-24.55150391 53.59185547 -25.51121094 53.39269531 -26.5 53.1875 C-27.47904297 52.99220703 -28.45808594 52.79691406 -29.46679688 52.59570312 C-31.87554496 52.11395351 -34.28216777 51.62347659 -36.6875 51.125 C-35.53485483 47.47495696 -34.20300082 43.96568233 -32.7109375 40.4453125 C-30.18064762 34.19331965 -28.99784577 27.77459372 -27.796875 21.16015625 C-26.23695944 13.52084372 -23.16602168 8.60352168 -17.6875 3.125 C-16.6975 3.125 -15.7075 3.125 -14.6875 3.125 C-12.2125 16.985 -12.2125 16.985 -9.6875 31.125 C-10.1825 15.78 -10.1825 15.78 -10.6875 0.125 C-3.92973602 -1.001294 -3.92973602 -1.001294 0 0 Z " fill="#EC913B" transform="translate(818.6875,479.875)"/>
<path d="M0 0 C0.70189453 0.84111328 0.70189453 0.84111328 1.41796875 1.69921875 C5.00692187 4.89724203 9.00386198 6.73299491 13.3125 8.8125 C14.21548828 9.25480957 15.11847656 9.69711914 16.04882812 10.15283203 C18.6948837 11.44440387 21.346602 12.72359621 24 14 C24.64372559 14.31340332 25.28745117 14.62680664 25.95068359 14.94970703 C29.50264457 16.67771534 33.07950397 18.33977533 36.68212891 19.95849609 C38.38718974 20.72464203 40.08961279 21.49666515 41.79052734 22.27197266 C56.1886476 28.80005904 70.6829589 34.47433113 85.6875 39.4375 C86.79779068 39.80504898 86.79779068 39.80504898 87.93051147 40.18002319 C98.55481529 43.67941333 109.25398205 46.89656959 120 50 C118.69706374 54.08581145 117.33199924 57.34974022 114.875 60.875 C114.33617187 61.65617188 113.79734375 62.43734375 113.2421875 63.2421875 C112.83226562 63.82226562 112.42234375 64.40234375 112 65 C71.32851232 57.21415965 32.20291572 40.78456036 -4 21 C-4.2063629 15.21180714 -4.23484024 10.32242308 -2 4.875 C-1.62875 3.94429688 -1.2575 3.01359375 -0.875 2.0546875 C-0.58625 1.37664062 -0.2975 0.69859375 0 0 Z " fill="#FBD6B3" transform="translate(651,465)"/>
<path d="M0 0 C0.33 0 0.66 0 1 0 C1.88277755 4.51815281 2.10589503 8.77512694 2.0625 13.375 C2.05347656 14.62023437 2.04445313 15.86546875 2.03515625 17.1484375 C2.02355469 18.08945312 2.01195312 19.03046875 2 20 C1.13914795 20.27312012 0.2782959 20.54624023 -0.60864258 20.82763672 C-3.9289155 21.9754267 -7.06473738 23.30391196 -10.26171875 24.7578125 C-11.14691948 25.15793045 -11.14691948 25.15793045 -12.05000305 25.56613159 C-13.93044426 26.41630553 -15.80915215 27.27021209 -17.6875 28.125 C-34.73339824 35.87230109 -51.94832478 43.10032554 -69.43676758 49.79248047 C-71.96278189 50.75968033 -74.48635334 51.73306559 -77.00976562 52.70703125 C-101.16281754 62 -101.16281754 62 -106 62 C-108.19140625 60.20703125 -108.19140625 60.20703125 -110.5625 57.8125 C-111.34753906 57.03519531 -112.13257813 56.25789062 -112.94140625 55.45703125 C-115.00195032 52.99767219 -115.89514344 50.97528058 -117 48 C-116.12303467 47.7097998 -115.24606934 47.41959961 -114.3425293 47.12060547 C-76.84396412 34.6478077 -40.24522033 20.01076188 -4.52490234 3.08398438 C-2 2 -2 2 0 2 C0 1.34 0 0.68 0 0 Z " fill="#B3B2B2" transform="translate(982,480)"/>
<path d="M0 0 C1.08152344 0.52207031 2.16304687 1.04414063 3.27734375 1.58203125 C23.23646969 11.16073316 43.31011147 20.13557655 64.26367188 27.32666016 C66 28 66 28 67 29 C65.50877193 47.49122807 65.50877193 47.49122807 63 50 C61.02 50 59.04 50 57 50 C57.33 45.71 57.66 41.42 58 37 C57.05125 38.423125 56.1025 39.84625 55.125 41.3125 C53.41666667 43.875 51.70833333 46.4375 50 49 C44.07300509 48.51266931 39.53777717 47.3194422 34.25 44.625 C33.56115723 44.27630859 32.87231445 43.92761719 32.16259766 43.56835938 C18.12453349 36.08919616 7.90729471 23.6792715 2 9 C1.23038843 6.01867137 0.58671491 3.02225424 0 0 Z " fill="#FDFDFD" transform="translate(648,505)"/>
<path d="M0 0 C10.55891239 2.52292597 20.75529377 5.40846506 31 9 C30.76171875 10.84375 30.76171875 10.84375 30 13 C17.55231091 22.32898703 0.85640862 23.05891049 -14 22 C-15.67614467 21.71817037 -17.35167139 21.41461026 -19 21 C-17.53345118 18.80017677 -16.06660866 16.60056332 -14.59765625 14.40234375 C-13.63972426 12.96193257 -12.68730122 11.51780095 -11.74609375 10.06640625 C-10.85482632 8.69497261 -9.93099993 7.34477767 -9 6 C-8.67 6 -8.34 6 -8 6 C-8.14183696 7.75032844 -8.28863429 9.50025534 -8.4375 11.25 C-8.51871094 12.22453125 -8.59992187 13.1990625 -8.68359375 14.203125 C-8.95074584 16.56461753 -9.35371968 18.71901065 -10 21 C-8.02 20.67 -6.04 20.34 -4 20 C-2.68 13.4 -1.36 6.8 0 0 Z " fill="#F8D4B2" transform="translate(715,534)"/>
<path d="M0 0 C0.9746521 0.5420105 0.9746521 0.5420105 1.96899414 1.0949707 C38.22357342 21.08497234 76.82587684 35.16828357 117 45 C116.67 46.32 116.34 47.64 116 49 C75.32851232 41.21415965 36.20291572 24.78456036 0 5 C0 3.35 0 1.7 0 0 Z " fill="#FBFBFA" transform="translate(647,481)"/>
<path d="M0 0 C0 0.99 0 1.98 0 3 C-27.0954134 15.94874849 -54.65459288 27.67897367 -82.8125 38.125 C-83.52431427 38.38917725 -84.23612854 38.65335449 -84.96951294 38.92553711 C-92.36860923 41.66212279 -99.7960931 44.3174203 -107.26171875 46.8671875 C-108.46143311 47.2782373 -109.66114746 47.68928711 -110.8972168 48.11279297 C-114 49 -114 49 -118 49 C-116.99277859 46.15099165 -116.35871201 45.176817 -113.6027832 43.81835938 C-112.59562256 43.49673828 -111.58846191 43.17511719 -110.55078125 42.84375 C-109.40859131 42.46750488 -108.26640137 42.09125977 -107.08959961 41.70361328 C-105.2199353 41.10782471 -105.2199353 41.10782471 -103.3125 40.5 C-100.65030819 39.62187448 -97.99290103 38.72974202 -95.3359375 37.8359375 C-94.64888229 37.60582977 -93.96182709 37.37572205 -93.25395203 37.13864136 C-65.33589627 27.72911185 -38.02744584 15.96496957 -11.45922852 3.30053711 C-10.53424561 2.86620361 -9.6092627 2.43187012 -8.65625 1.984375 C-7.44678711 1.40768066 -7.44678711 1.40768066 -6.21289062 0.81933594 C-4 0 -4 0 0 0 Z " fill="#FDFCFA" transform="translate(982,479)"/>
<path d="M0 0 C3.50165855 2.5881824 4.77470816 4.27111465 6.0625 8.4375 C5.98454913 12.88069934 4.87270176 14.66145471 2 18 C-0.65863745 20.10857453 -1.98701207 20.00023614 -5.4375 19.9375 C-9.76328039 18.79913674 -11.35059661 17.58448695 -14 14 C-15.35852611 9.60476848 -15.41371666 7.81211049 -13.3125 3.6875 C-9.08626368 -1.22407194 -6.35531304 -1.6724508 0 0 Z " fill="#0C0B0C" transform="translate(947,380)"/>
<path d="M0 0 C2.89400457 1.57169387 5.05115625 3.33789067 7 6 C7.90262542 9.59672115 7.36758678 12.76357173 6.3125 16.3125 C3.77722178 19.57214342 1.0874193 20.81490735 -2.9375 21.5 C-6.24078857 20.96068758 -8.32353204 19.98344371 -10.7890625 17.6875 C-13.14567184 14.40345085 -13.55516213 10.94859063 -13 7 C-10.03024833 1.42011503 -6.23239922 -0.82314707 0 0 Z " fill="#0B0A0B" transform="translate(692,379)"/>
<path d="M0 0 C0.66 0.33 1.32 0.66 2 1 C2.59423828 3.18969727 2.59423828 3.18969727 3.0703125 6.06640625 C3.24433594 7.10990234 3.41835938 8.15339844 3.59765625 9.22851562 C3.77167969 10.32873047 3.94570313 11.42894531 4.125 12.5625 C4.30675781 13.63564453 4.48851562 14.70878906 4.67578125 15.81445312 C5.62158447 21.62083156 6.21386549 27.1186991 6 33 C1.03083364 32.48594831 -3.29026351 31.76615118 -8 30 C-7.34714573 24.16428224 -6.37730244 18.48573638 -5.125 12.75 C-4.96386719 11.96109375 -4.80273438 11.1721875 -4.63671875 10.359375 C-3.7418246 6.25257394 -2.96624108 3.15269052 0 0 Z " fill="#EFB787" transform="translate(796,489)"/>
<path d="M0 0 C0.66 0.33 1.32 0.66 2 1 C2.62037352 3.73973569 3.12734972 6.41773392 3.5625 9.1875 C3.75102539 10.32155273 3.75102539 10.32155273 3.94335938 11.47851562 C4.30327025 13.65117131 4.65216394 15.82538428 5 18 C5.33226281 20.00017813 5.66511518 22.0002592 6 24 C3.03 24.66 0.06 25.32 -3 26 C-3.42194237 16.9985627 -1.82654616 8.76307265 0 0 Z " fill="#E5B186" transform="translate(836,496)"/>
<path d="M0 0 C0.33 0 0.66 0 1 0 C0.85816304 1.75032844 0.71136571 3.50025534 0.5625 5.25 C0.48128906 6.22453125 0.40007813 7.1990625 0.31640625 8.203125 C0 11 0 11 -1 15 C4.28 15 9.56 15 15 15 C15 15.33 15 15.66 15 16 C11.77085248 16.02917228 8.54173917 16.04685663 5.3125 16.0625 C3.94448242 16.07506836 3.94448242 16.07506836 2.54882812 16.08789062 C1.66259766 16.09111328 0.77636719 16.09433594 -0.13671875 16.09765625 C-0.94842529 16.10289307 -1.76013184 16.10812988 -2.59643555 16.11352539 C-5.14864673 15.9929791 -7.51026137 15.559949 -10 15 C-8.53345118 12.80017677 -7.06660866 10.60056332 -5.59765625 8.40234375 C-4.63972426 6.96193257 -3.68730122 5.51780095 -2.74609375 4.06640625 C-1.85482632 2.69497261 -0.93099993 1.34477767 0 0 Z " fill="#AFADAB" transform="translate(706,540)"/>
<path d="M0 0 C3 1 3 1 4.421875 3.1796875 C4.86015625 4.06914063 5.2984375 4.95859375 5.75 5.875 C6.19859375 6.75929688 6.6471875 7.64359375 7.109375 8.5546875 C8 11 8 11 7 14 C5.82807953 12.04480616 4.6626071 10.0857461 3.5 8.125 C2.8503125 7.03445313 2.200625 5.94390625 1.53125 4.8203125 C0 2 0 2 0 0 Z " fill="#131211" transform="translate(702,998)"/>
</svg>
